<?xml version="1.0" encoding="utf-8" standalone="no"?>
<!DOCTYPE svg PUBLIC "-//W3C//DTD SVG 1.1//EN"
  "http://www.w3.org/Graphics/SVG/1.1/DTD/svg11.dtd">
<!-- Created with matplotlib (http://matplotlib.org/) -->
<svg height="864pt" version="1.1" viewBox="0 0 792 864" width="792pt" xmlns="http://www.w3.org/2000/svg" xmlns:xlink="http://www.w3.org/1999/xlink">
 <defs>
  <style type="text/css">
*{stroke-linecap:butt;stroke-linejoin:round;}
  </style>
 </defs>
 <g id="figure_1">
  <g id="patch_1">
   <path d="M 0 864 
L 792 864 
L 792 0 
L 0 0 
z
" style="fill:#ffffff;"/>
  </g>
  <g id="axes_1">
   <g id="patch_2">
    <path d="M 99 400.189091 
L 712.8 400.189091 
L 712.8 103.68 
L 99 103.68 
z
" style="fill:#eaeaf2;"/>
   </g>
   <g id="matplotlib.axis_1">
    <g id="xtick_1">
     <g id="line2d_1"/>
     <g id="text_1">
      <!-- MCI -->
      <defs>
       <path d="M 7.421875 0 
L 7.421875 71.578125 
L 21.6875 71.578125 
L 38.625 20.90625 
Q 40.96875 13.8125 42.046875 10.296875 
Q 43.265625 14.203125 45.84375 21.78125 
L 62.984375 71.578125 
L 75.734375 71.578125 
L 75.734375 0 
L 66.609375 0 
L 66.609375 59.90625 
L 45.796875 0 
L 37.25 0 
L 16.546875 60.9375 
L 16.546875 0 
z
" id="ArialMT-4d"/>
       <path d="M 58.796875 25.09375 
L 68.265625 22.703125 
Q 65.28125 11.03125 57.546875 4.90625 
Q 49.8125 -1.21875 38.625 -1.21875 
Q 27.046875 -1.21875 19.796875 3.484375 
Q 12.546875 8.203125 8.765625 17.140625 
Q 4.984375 26.078125 4.984375 36.328125 
Q 4.984375 47.515625 9.25 55.828125 
Q 13.53125 64.15625 21.40625 68.46875 
Q 29.296875 72.796875 38.765625 72.796875 
Q 49.515625 72.796875 56.828125 67.328125 
Q 64.15625 61.859375 67.046875 51.953125 
L 57.71875 49.75 
Q 55.21875 57.5625 50.484375 61.125 
Q 45.75 64.703125 38.578125 64.703125 
Q 30.328125 64.703125 24.78125 60.734375 
Q 19.234375 56.78125 16.984375 50.109375 
Q 14.75 43.453125 14.75 36.375 
Q 14.75 27.25 17.40625 20.4375 
Q 20.0625 13.625 25.671875 10.25 
Q 31.296875 6.890625 37.84375 6.890625 
Q 45.796875 6.890625 51.3125 11.46875 
Q 56.84375 16.0625 58.796875 25.09375 
z
" id="ArialMT-43"/>
       <path d="M 9.328125 0 
L 9.328125 71.578125 
L 18.796875 71.578125 
L 18.796875 0 
z
" id="ArialMT-49"/>
      </defs>
      <g style="fill:#262626;" transform="translate(187.552734 417.92581)scale(0.15 -0.15)">
       <use xlink:href="#ArialMT-4d"/>
       <use x="83.300781" xlink:href="#ArialMT-43"/>
       <use x="155.517578" xlink:href="#ArialMT-49"/>
      </g>
     </g>
    </g>
    <g id="xtick_2">
     <g id="line2d_2"/>
     <g id="text_2">
      <!-- AD -->
      <defs>
       <path d="M -0.140625 0 
L 27.34375 71.578125 
L 37.546875 71.578125 
L 66.84375 0 
L 56.0625 0 
L 47.703125 21.6875 
L 17.78125 21.6875 
L 9.90625 0 
z
M 20.515625 29.390625 
L 44.78125 29.390625 
L 37.3125 49.21875 
Q 33.890625 58.25 32.234375 64.0625 
Q 30.859375 57.171875 28.375 50.390625 
z
" id="ArialMT-41"/>
       <path d="M 7.71875 0 
L 7.71875 71.578125 
L 32.375 71.578125 
Q 40.71875 71.578125 45.125 70.5625 
Q 51.265625 69.140625 55.609375 65.4375 
Q 61.28125 60.640625 64.078125 53.1875 
Q 66.890625 45.75 66.890625 36.1875 
Q 66.890625 28.03125 64.984375 21.734375 
Q 63.09375 15.4375 60.109375 11.296875 
Q 57.125 7.171875 53.578125 4.796875 
Q 50.046875 2.4375 45.046875 1.21875 
Q 40.046875 0 33.546875 0 
z
M 17.1875 8.453125 
L 32.46875 8.453125 
Q 39.546875 8.453125 43.578125 9.765625 
Q 47.609375 11.078125 50 13.484375 
Q 53.375 16.84375 55.25 22.53125 
Q 57.125 28.21875 57.125 36.328125 
Q 57.125 47.5625 53.4375 53.59375 
Q 49.75 59.625 44.484375 61.671875 
Q 40.671875 63.140625 32.234375 63.140625 
L 17.1875 63.140625 
z
" id="ArialMT-44"/>
      </defs>
      <g style="fill:#262626;" transform="translate(395.480859 417.92581)scale(0.15 -0.15)">
       <use xlink:href="#ArialMT-41"/>
       <use x="66.699219" xlink:href="#ArialMT-44"/>
      </g>
     </g>
    </g>
    <g id="xtick_3">
     <g id="line2d_3"/>
     <g id="text_3">
      <!-- CN -->
      <defs>
       <path d="M 7.625 0 
L 7.625 71.578125 
L 17.328125 71.578125 
L 54.9375 15.375 
L 54.9375 71.578125 
L 64.015625 71.578125 
L 64.015625 0 
L 54.296875 0 
L 16.703125 56.25 
L 16.703125 0 
z
" id="ArialMT-4e"/>
      </defs>
      <g style="fill:#262626;" transform="translate(599.667187 417.92581)scale(0.15 -0.15)">
       <use xlink:href="#ArialMT-43"/>
       <use x="72.216797" xlink:href="#ArialMT-4e"/>
      </g>
     </g>
    </g>
    <g id="text_4">
     <!-- Diagnosis category -->
     <defs>
      <path d="M 6.640625 61.46875 
L 6.640625 71.578125 
L 15.4375 71.578125 
L 15.4375 61.46875 
z
M 6.640625 0 
L 6.640625 51.859375 
L 15.4375 51.859375 
L 15.4375 0 
z
" id="ArialMT-69"/>
      <path d="M 40.4375 6.390625 
Q 35.546875 2.25 31.03125 0.53125 
Q 26.515625 -1.171875 21.34375 -1.171875 
Q 12.796875 -1.171875 8.203125 3 
Q 3.609375 7.171875 3.609375 13.671875 
Q 3.609375 17.484375 5.34375 20.625 
Q 7.078125 23.78125 9.890625 25.6875 
Q 12.703125 27.59375 16.21875 28.5625 
Q 18.796875 29.25 24.03125 29.890625 
Q 34.671875 31.15625 39.703125 32.90625 
Q 39.75 34.71875 39.75 35.203125 
Q 39.75 40.578125 37.25 42.78125 
Q 33.890625 45.75 27.25 45.75 
Q 21.046875 45.75 18.09375 43.578125 
Q 15.140625 41.40625 13.71875 35.890625 
L 5.125 37.0625 
Q 6.296875 42.578125 8.984375 45.96875 
Q 11.671875 49.359375 16.75 51.1875 
Q 21.828125 53.03125 28.515625 53.03125 
Q 35.15625 53.03125 39.296875 51.46875 
Q 43.453125 49.90625 45.40625 47.53125 
Q 47.359375 45.171875 48.140625 41.546875 
Q 48.578125 39.3125 48.578125 33.453125 
L 48.578125 21.734375 
Q 48.578125 9.46875 49.140625 6.21875 
Q 49.703125 2.984375 51.375 0 
L 42.1875 0 
Q 40.828125 2.734375 40.4375 6.390625 
z
M 39.703125 26.03125 
Q 34.90625 24.078125 25.34375 22.703125 
Q 19.921875 21.921875 17.671875 20.9375 
Q 15.4375 19.96875 14.203125 18.09375 
Q 12.984375 16.21875 12.984375 13.921875 
Q 12.984375 10.40625 15.640625 8.0625 
Q 18.3125 5.71875 23.4375 5.71875 
Q 28.515625 5.71875 32.46875 7.9375 
Q 36.421875 10.15625 38.28125 14.015625 
Q 39.703125 17 39.703125 22.796875 
z
" id="ArialMT-61"/>
      <path d="M 4.984375 -4.296875 
L 13.53125 -5.5625 
Q 14.0625 -9.515625 16.5 -11.328125 
Q 19.78125 -13.765625 25.4375 -13.765625 
Q 31.546875 -13.765625 34.859375 -11.328125 
Q 38.1875 -8.890625 39.359375 -4.5 
Q 40.046875 -1.8125 39.984375 6.78125 
Q 34.234375 0 25.640625 0 
Q 14.9375 0 9.078125 7.71875 
Q 3.21875 15.4375 3.21875 26.21875 
Q 3.21875 33.640625 5.90625 39.90625 
Q 8.59375 46.1875 13.6875 49.609375 
Q 18.796875 53.03125 25.6875 53.03125 
Q 34.859375 53.03125 40.828125 45.609375 
L 40.828125 51.859375 
L 48.921875 51.859375 
L 48.921875 7.03125 
Q 48.921875 -5.078125 46.453125 -10.125 
Q 44 -15.1875 38.640625 -18.109375 
Q 33.296875 -21.046875 25.484375 -21.046875 
Q 16.21875 -21.046875 10.5 -16.875 
Q 4.78125 -12.703125 4.984375 -4.296875 
z
M 12.25 26.859375 
Q 12.25 16.65625 16.296875 11.96875 
Q 20.359375 7.28125 26.46875 7.28125 
Q 32.515625 7.28125 36.609375 11.9375 
Q 40.71875 16.609375 40.71875 26.5625 
Q 40.71875 36.078125 36.5 40.90625 
Q 32.28125 45.75 26.3125 45.75 
Q 20.453125 45.75 16.34375 40.984375 
Q 12.25 36.234375 12.25 26.859375 
z
" id="ArialMT-67"/>
      <path d="M 6.59375 0 
L 6.59375 51.859375 
L 14.5 51.859375 
L 14.5 44.484375 
Q 20.21875 53.03125 31 53.03125 
Q 35.6875 53.03125 39.625 51.34375 
Q 43.5625 49.65625 45.515625 46.921875 
Q 47.46875 44.1875 48.25 40.4375 
Q 48.734375 37.984375 48.734375 31.890625 
L 48.734375 0 
L 39.9375 0 
L 39.9375 31.546875 
Q 39.9375 36.921875 38.90625 39.578125 
Q 37.890625 42.234375 35.28125 43.8125 
Q 32.671875 45.40625 29.15625 45.40625 
Q 23.53125 45.40625 19.453125 41.84375 
Q 15.375 38.28125 15.375 28.328125 
L 15.375 0 
z
" id="ArialMT-6e"/>
      <path d="M 3.328125 25.921875 
Q 3.328125 40.328125 11.328125 47.265625 
Q 18.015625 53.03125 27.640625 53.03125 
Q 38.328125 53.03125 45.109375 46.015625 
Q 51.90625 39.015625 51.90625 26.65625 
Q 51.90625 16.65625 48.90625 10.90625 
Q 45.90625 5.171875 40.15625 2 
Q 34.421875 -1.171875 27.640625 -1.171875 
Q 16.75 -1.171875 10.03125 5.8125 
Q 3.328125 12.796875 3.328125 25.921875 
z
M 12.359375 25.921875 
Q 12.359375 15.96875 16.703125 11.015625 
Q 21.046875 6.0625 27.640625 6.0625 
Q 34.1875 6.0625 38.53125 11.03125 
Q 42.875 16.015625 42.875 26.21875 
Q 42.875 35.84375 38.5 40.796875 
Q 34.125 45.75 27.640625 45.75 
Q 21.046875 45.75 16.703125 40.8125 
Q 12.359375 35.890625 12.359375 25.921875 
z
" id="ArialMT-6f"/>
      <path d="M 3.078125 15.484375 
L 11.765625 16.84375 
Q 12.5 11.625 15.84375 8.84375 
Q 19.1875 6.0625 25.203125 6.0625 
Q 31.25 6.0625 34.171875 8.515625 
Q 37.109375 10.984375 37.109375 14.3125 
Q 37.109375 17.28125 34.515625 19 
Q 32.71875 20.171875 25.53125 21.96875 
Q 15.875 24.421875 12.140625 26.203125 
Q 8.40625 27.984375 6.46875 31.125 
Q 4.546875 34.28125 4.546875 38.09375 
Q 4.546875 41.546875 6.125 44.5 
Q 7.71875 47.46875 10.453125 49.421875 
Q 12.5 50.921875 16.03125 51.96875 
Q 19.578125 53.03125 23.640625 53.03125 
Q 29.734375 53.03125 34.34375 51.265625 
Q 38.96875 49.515625 41.15625 46.5 
Q 43.359375 43.5 44.1875 38.484375 
L 35.59375 37.3125 
Q 35.015625 41.3125 32.203125 43.546875 
Q 29.390625 45.796875 24.265625 45.796875 
Q 18.21875 45.796875 15.625 43.796875 
Q 13.03125 41.796875 13.03125 39.109375 
Q 13.03125 37.40625 14.109375 36.03125 
Q 15.1875 34.625 17.484375 33.6875 
Q 18.796875 33.203125 25.25 31.453125 
Q 34.578125 28.953125 38.25 27.359375 
Q 41.9375 25.78125 44.03125 22.75 
Q 46.140625 19.734375 46.140625 15.234375 
Q 46.140625 10.84375 43.578125 6.953125 
Q 41.015625 3.078125 36.171875 0.953125 
Q 31.34375 -1.171875 25.25 -1.171875 
Q 15.140625 -1.171875 9.84375 3.03125 
Q 4.546875 7.234375 3.078125 15.484375 
z
" id="ArialMT-73"/>
      <path id="ArialMT-20"/>
      <path d="M 40.4375 19 
L 49.078125 17.875 
Q 47.65625 8.9375 41.8125 3.875 
Q 35.984375 -1.171875 27.484375 -1.171875 
Q 16.84375 -1.171875 10.375 5.78125 
Q 3.90625 12.75 3.90625 25.734375 
Q 3.90625 34.125 6.6875 40.421875 
Q 9.46875 46.734375 15.15625 49.875 
Q 20.84375 53.03125 27.546875 53.03125 
Q 35.984375 53.03125 41.359375 48.75 
Q 46.734375 44.484375 48.25 36.625 
L 39.703125 35.296875 
Q 38.484375 40.53125 35.375 43.15625 
Q 32.28125 45.796875 27.875 45.796875 
Q 21.234375 45.796875 17.078125 41.03125 
Q 12.9375 36.28125 12.9375 25.984375 
Q 12.9375 15.53125 16.9375 10.796875 
Q 20.953125 6.0625 27.390625 6.0625 
Q 32.5625 6.0625 36.03125 9.234375 
Q 39.5 12.40625 40.4375 19 
z
" id="ArialMT-63"/>
      <path d="M 25.78125 7.859375 
L 27.046875 0.09375 
Q 23.34375 -0.6875 20.40625 -0.6875 
Q 15.625 -0.6875 12.984375 0.828125 
Q 10.359375 2.34375 9.28125 4.8125 
Q 8.203125 7.28125 8.203125 15.1875 
L 8.203125 45.015625 
L 1.765625 45.015625 
L 1.765625 51.859375 
L 8.203125 51.859375 
L 8.203125 64.703125 
L 16.9375 69.96875 
L 16.9375 51.859375 
L 25.78125 51.859375 
L 25.78125 45.015625 
L 16.9375 45.015625 
L 16.9375 14.703125 
Q 16.9375 10.9375 17.40625 9.859375 
Q 17.875 8.796875 18.921875 8.15625 
Q 19.96875 7.515625 21.921875 7.515625 
Q 23.390625 7.515625 25.78125 7.859375 
z
" id="ArialMT-74"/>
      <path d="M 42.09375 16.703125 
L 51.171875 15.578125 
Q 49.03125 7.625 43.21875 3.21875 
Q 37.40625 -1.171875 28.375 -1.171875 
Q 17 -1.171875 10.328125 5.828125 
Q 3.65625 12.84375 3.65625 25.484375 
Q 3.65625 38.578125 10.390625 45.796875 
Q 17.140625 53.03125 27.875 53.03125 
Q 38.28125 53.03125 44.875 45.953125 
Q 51.46875 38.875 51.46875 26.03125 
Q 51.46875 25.25 51.421875 23.6875 
L 12.75 23.6875 
Q 13.234375 15.140625 17.578125 10.59375 
Q 21.921875 6.0625 28.421875 6.0625 
Q 33.25 6.0625 36.671875 8.59375 
Q 40.09375 11.140625 42.09375 16.703125 
z
M 13.234375 30.90625 
L 42.1875 30.90625 
Q 41.609375 37.453125 38.875 40.71875 
Q 34.671875 45.796875 27.984375 45.796875 
Q 21.921875 45.796875 17.796875 41.75 
Q 13.671875 37.703125 13.234375 30.90625 
z
" id="ArialMT-65"/>
      <path d="M 6.5 0 
L 6.5 51.859375 
L 14.40625 51.859375 
L 14.40625 44 
Q 17.4375 49.515625 20 51.265625 
Q 22.5625 53.03125 25.640625 53.03125 
Q 30.078125 53.03125 34.671875 50.203125 
L 31.640625 42.046875 
Q 28.421875 43.953125 25.203125 43.953125 
Q 22.3125 43.953125 20.015625 42.21875 
Q 17.71875 40.484375 16.75 37.40625 
Q 15.28125 32.71875 15.28125 27.15625 
L 15.28125 0 
z
" id="ArialMT-72"/>
      <path d="M 6.203125 -19.96875 
L 5.21875 -11.71875 
Q 8.109375 -12.5 10.25 -12.5 
Q 13.1875 -12.5 14.9375 -11.515625 
Q 16.703125 -10.546875 17.828125 -8.796875 
Q 18.65625 -7.46875 20.515625 -2.25 
Q 20.75 -1.515625 21.296875 -0.09375 
L 1.609375 51.859375 
L 11.078125 51.859375 
L 21.875 21.828125 
Q 23.96875 16.109375 25.640625 9.8125 
Q 27.15625 15.875 29.25 21.625 
L 40.328125 51.859375 
L 49.125 51.859375 
L 29.390625 -0.875 
Q 26.21875 -9.421875 24.46875 -12.640625 
Q 22.125 -17 19.09375 -19.015625 
Q 16.0625 -21.046875 11.859375 -21.046875 
Q 9.328125 -21.046875 6.203125 -19.96875 
z
" id="ArialMT-79"/>
     </defs>
     <g style="fill:#262626;" transform="translate(335.742773 436.71745)scale(0.165 -0.165)">
      <use xlink:href="#ArialMT-44"/>
      <use x="72.216797" xlink:href="#ArialMT-69"/>
      <use x="94.433594" xlink:href="#ArialMT-61"/>
      <use x="150.048828" xlink:href="#ArialMT-67"/>
      <use x="205.664062" xlink:href="#ArialMT-6e"/>
      <use x="261.279297" xlink:href="#ArialMT-6f"/>
      <use x="316.894531" xlink:href="#ArialMT-73"/>
      <use x="366.894531" xlink:href="#ArialMT-69"/>
      <use x="389.111328" xlink:href="#ArialMT-73"/>
      <use x="439.111328" xlink:href="#ArialMT-20"/>
      <use x="466.894531" xlink:href="#ArialMT-63"/>
      <use x="516.894531" xlink:href="#ArialMT-61"/>
      <use x="572.509766" xlink:href="#ArialMT-74"/>
      <use x="600.292969" xlink:href="#ArialMT-65"/>
      <use x="655.908203" xlink:href="#ArialMT-67"/>
      <use x="711.523438" xlink:href="#ArialMT-6f"/>
      <use x="767.138672" xlink:href="#ArialMT-72"/>
      <use x="800.439453" xlink:href="#ArialMT-79"/>
     </g>
    </g>
   </g>
   <g id="matplotlib.axis_2">
    <g id="ytick_1">
     <g id="line2d_4">
      <path clip-path="url(#p38f3570f6d)" d="M 99 398.407751 
L 712.8 398.407751 
" style="fill:none;stroke:#ffffff;stroke-linecap:round;"/>
     </g>
     <g id="line2d_5"/>
     <g id="text_5">
      <!-- −0.5 -->
      <defs>
       <path d="M 52.828125 31.203125 
L 5.5625 31.203125 
L 5.5625 39.40625 
L 52.828125 39.40625 
z
" id="ArialMT-2212"/>
       <path d="M 4.15625 35.296875 
Q 4.15625 48 6.765625 55.734375 
Q 9.375 63.484375 14.515625 67.671875 
Q 19.671875 71.875 27.484375 71.875 
Q 33.25 71.875 37.59375 69.546875 
Q 41.9375 67.234375 44.765625 62.859375 
Q 47.609375 58.5 49.21875 52.21875 
Q 50.828125 45.953125 50.828125 35.296875 
Q 50.828125 22.703125 48.234375 14.96875 
Q 45.65625 7.234375 40.5 3 
Q 35.359375 -1.21875 27.484375 -1.21875 
Q 17.140625 -1.21875 11.234375 6.203125 
Q 4.15625 15.140625 4.15625 35.296875 
z
M 13.1875 35.296875 
Q 13.1875 17.671875 17.3125 11.828125 
Q 21.4375 6 27.484375 6 
Q 33.546875 6 37.671875 11.859375 
Q 41.796875 17.71875 41.796875 35.296875 
Q 41.796875 52.984375 37.671875 58.78125 
Q 33.546875 64.59375 27.390625 64.59375 
Q 21.34375 64.59375 17.71875 59.46875 
Q 13.1875 52.9375 13.1875 35.296875 
z
" id="ArialMT-30"/>
       <path d="M 9.078125 0 
L 9.078125 10.015625 
L 19.09375 10.015625 
L 19.09375 0 
z
" id="ArialMT-2e"/>
       <path d="M 4.15625 18.75 
L 13.375 19.53125 
Q 14.40625 12.796875 18.140625 9.390625 
Q 21.875 6 27.15625 6 
Q 33.5 6 37.890625 10.78125 
Q 42.28125 15.578125 42.28125 23.484375 
Q 42.28125 31 38.0625 35.34375 
Q 33.84375 39.703125 27 39.703125 
Q 22.75 39.703125 19.328125 37.765625 
Q 15.921875 35.84375 13.96875 32.765625 
L 5.71875 33.84375 
L 12.640625 70.609375 
L 48.25 70.609375 
L 48.25 62.203125 
L 19.671875 62.203125 
L 15.828125 42.96875 
Q 22.265625 47.46875 29.34375 47.46875 
Q 38.71875 47.46875 45.15625 40.96875 
Q 51.609375 34.46875 51.609375 24.265625 
Q 51.609375 14.546875 45.953125 7.46875 
Q 39.0625 -1.21875 27.15625 -1.21875 
Q 17.390625 -1.21875 11.203125 4.25 
Q 5.03125 9.71875 4.15625 18.75 
z
" id="ArialMT-35"/>
      </defs>
      <g style="fill:#262626;" transform="translate(62.389063 403.77611)scale(0.15 -0.15)">
       <use xlink:href="#ArialMT-2212"/>
       <use x="58.398438" xlink:href="#ArialMT-30"/>
       <use x="114.013672" xlink:href="#ArialMT-2e"/>
       <use x="141.796875" xlink:href="#ArialMT-35"/>
      </g>
     </g>
    </g>
    <g id="ytick_2">
     <g id="line2d_6">
      <path clip-path="url(#p38f3570f6d)" d="M 99 349.583349 
L 712.8 349.583349 
" style="fill:none;stroke:#ffffff;stroke-linecap:round;"/>
     </g>
     <g id="line2d_7"/>
     <g id="text_6">
      <!-- 0.0 -->
      <g style="fill:#262626;" transform="translate(71.15 354.951708)scale(0.15 -0.15)">
       <use xlink:href="#ArialMT-30"/>
       <use x="55.615234" xlink:href="#ArialMT-2e"/>
       <use x="83.398438" xlink:href="#ArialMT-30"/>
      </g>
     </g>
    </g>
    <g id="ytick_3">
     <g id="line2d_8">
      <path clip-path="url(#p38f3570f6d)" d="M 99 300.758947 
L 712.8 300.758947 
" style="fill:none;stroke:#ffffff;stroke-linecap:round;"/>
     </g>
     <g id="line2d_9"/>
     <g id="text_7">
      <!-- 0.5 -->
      <g style="fill:#262626;" transform="translate(71.15 306.127307)scale(0.15 -0.15)">
       <use xlink:href="#ArialMT-30"/>
       <use x="55.615234" xlink:href="#ArialMT-2e"/>
       <use x="83.398438" xlink:href="#ArialMT-35"/>
      </g>
     </g>
    </g>
    <g id="ytick_4">
     <g id="line2d_10">
      <path clip-path="url(#p38f3570f6d)" d="M 99 251.934545 
L 712.8 251.934545 
" style="fill:none;stroke:#ffffff;stroke-linecap:round;"/>
     </g>
     <g id="line2d_11"/>
     <g id="text_8">
      <!-- 1.0 -->
      <defs>
       <path d="M 37.25 0 
L 28.46875 0 
L 28.46875 56 
Q 25.296875 52.984375 20.140625 49.953125 
Q 14.984375 46.921875 10.890625 45.40625 
L 10.890625 53.90625 
Q 18.265625 57.375 23.78125 62.296875 
Q 29.296875 67.234375 31.59375 71.875 
L 37.25 71.875 
z
" id="ArialMT-31"/>
      </defs>
      <g style="fill:#262626;" transform="translate(71.15 257.302905)scale(0.15 -0.15)">
       <use xlink:href="#ArialMT-31"/>
       <use x="55.615234" xlink:href="#ArialMT-2e"/>
       <use x="83.398438" xlink:href="#ArialMT-30"/>
      </g>
     </g>
    </g>
    <g id="ytick_5">
     <g id="line2d_12">
      <path clip-path="url(#p38f3570f6d)" d="M 99 203.110144 
L 712.8 203.110144 
" style="fill:none;stroke:#ffffff;stroke-linecap:round;"/>
     </g>
     <g id="line2d_13"/>
     <g id="text_9">
      <!-- 1.5 -->
      <g style="fill:#262626;" transform="translate(71.15 208.478503)scale(0.15 -0.15)">
       <use xlink:href="#ArialMT-31"/>
       <use x="55.615234" xlink:href="#ArialMT-2e"/>
       <use x="83.398438" xlink:href="#ArialMT-35"/>
      </g>
     </g>
    </g>
    <g id="ytick_6">
     <g id="line2d_14">
      <path clip-path="url(#p38f3570f6d)" d="M 99 154.285742 
L 712.8 154.285742 
" style="fill:none;stroke:#ffffff;stroke-linecap:round;"/>
     </g>
     <g id="line2d_15"/>
     <g id="text_10">
      <!-- 2.0 -->
      <defs>
       <path d="M 50.34375 8.453125 
L 50.34375 0 
L 3.03125 0 
Q 2.9375 3.171875 4.046875 6.109375 
Q 5.859375 10.9375 9.828125 15.625 
Q 13.8125 20.3125 21.34375 26.46875 
Q 33.015625 36.03125 37.109375 41.625 
Q 41.21875 47.21875 41.21875 52.203125 
Q 41.21875 57.421875 37.46875 61 
Q 33.734375 64.59375 27.734375 64.59375 
Q 21.390625 64.59375 17.578125 60.78125 
Q 13.765625 56.984375 13.71875 50.25 
L 4.6875 51.171875 
Q 5.609375 61.28125 11.65625 66.578125 
Q 17.71875 71.875 27.9375 71.875 
Q 38.234375 71.875 44.234375 66.15625 
Q 50.25 60.453125 50.25 52 
Q 50.25 47.703125 48.484375 43.546875 
Q 46.734375 39.40625 42.65625 34.8125 
Q 38.578125 30.21875 29.109375 22.21875 
Q 21.1875 15.578125 18.9375 13.203125 
Q 16.703125 10.84375 15.234375 8.453125 
z
" id="ArialMT-32"/>
      </defs>
      <g style="fill:#262626;" transform="translate(71.15 159.654101)scale(0.15 -0.15)">
       <use xlink:href="#ArialMT-32"/>
       <use x="55.615234" xlink:href="#ArialMT-2e"/>
       <use x="83.398438" xlink:href="#ArialMT-30"/>
      </g>
     </g>
    </g>
    <g id="ytick_7">
     <g id="line2d_16">
      <path clip-path="url(#p38f3570f6d)" d="M 99 105.46134 
L 712.8 105.46134 
" style="fill:none;stroke:#ffffff;stroke-linecap:round;"/>
     </g>
     <g id="line2d_17"/>
     <g id="text_11">
      <!-- 2.5 -->
      <g style="fill:#262626;" transform="translate(71.15 110.8297)scale(0.15 -0.15)">
       <use xlink:href="#ArialMT-32"/>
       <use x="55.615234" xlink:href="#ArialMT-2e"/>
       <use x="83.398438" xlink:href="#ArialMT-35"/>
      </g>
     </g>
    </g>
    <g id="text_12">
     <!-- APOE4 -->
     <defs>
      <path d="M 7.71875 0 
L 7.71875 71.578125 
L 34.71875 71.578125 
Q 41.84375 71.578125 45.609375 70.90625 
Q 50.875 70.015625 54.4375 67.546875 
Q 58.015625 65.09375 60.1875 60.640625 
Q 62.359375 56.203125 62.359375 50.875 
Q 62.359375 41.75 56.546875 35.421875 
Q 50.734375 29.109375 35.546875 29.109375 
L 17.1875 29.109375 
L 17.1875 0 
z
M 17.1875 37.546875 
L 35.6875 37.546875 
Q 44.875 37.546875 48.734375 40.96875 
Q 52.59375 44.390625 52.59375 50.59375 
Q 52.59375 55.078125 50.3125 58.265625 
Q 48.046875 61.46875 44.34375 62.5 
Q 41.9375 63.140625 35.5 63.140625 
L 17.1875 63.140625 
z
" id="ArialMT-50"/>
      <path d="M 4.828125 34.859375 
Q 4.828125 52.6875 14.390625 62.765625 
Q 23.96875 72.859375 39.109375 72.859375 
Q 49.03125 72.859375 56.984375 68.109375 
Q 64.9375 63.375 69.109375 54.90625 
Q 73.296875 46.4375 73.296875 35.6875 
Q 73.296875 24.8125 68.890625 16.21875 
Q 64.5 7.625 56.4375 3.203125 
Q 48.390625 -1.21875 39.0625 -1.21875 
Q 28.953125 -1.21875 20.984375 3.65625 
Q 13.03125 8.546875 8.921875 16.984375 
Q 4.828125 25.4375 4.828125 34.859375 
z
M 14.59375 34.71875 
Q 14.59375 21.78125 21.546875 14.328125 
Q 28.515625 6.890625 39.015625 6.890625 
Q 49.703125 6.890625 56.609375 14.40625 
Q 63.53125 21.921875 63.53125 35.75 
Q 63.53125 44.484375 60.578125 51 
Q 57.625 57.515625 51.921875 61.109375 
Q 46.234375 64.703125 39.15625 64.703125 
Q 29.109375 64.703125 21.84375 57.78125 
Q 14.59375 50.875 14.59375 34.71875 
z
" id="ArialMT-4f"/>
      <path d="M 7.90625 0 
L 7.90625 71.578125 
L 59.671875 71.578125 
L 59.671875 63.140625 
L 17.390625 63.140625 
L 17.390625 41.21875 
L 56.984375 41.21875 
L 56.984375 32.8125 
L 17.390625 32.8125 
L 17.390625 8.453125 
L 61.328125 8.453125 
L 61.328125 0 
z
" id="ArialMT-45"/>
      <path d="M 32.328125 0 
L 32.328125 17.140625 
L 1.265625 17.140625 
L 1.265625 25.203125 
L 33.9375 71.578125 
L 41.109375 71.578125 
L 41.109375 25.203125 
L 50.78125 25.203125 
L 50.78125 17.140625 
L 41.109375 17.140625 
L 41.109375 0 
z
M 32.328125 25.203125 
L 32.328125 57.46875 
L 9.90625 25.203125 
z
" id="ArialMT-34"/>
     </defs>
     <g style="fill:#262626;" transform="translate(55.109687 279.448295)rotate(-90)scale(0.165 -0.165)">
      <use xlink:href="#ArialMT-41"/>
      <use x="66.699219" xlink:href="#ArialMT-50"/>
      <use x="133.398438" xlink:href="#ArialMT-4f"/>
      <use x="211.181641" xlink:href="#ArialMT-45"/>
      <use x="277.880859" xlink:href="#ArialMT-34"/>
     </g>
    </g>
   </g>
   <g id="PolyCollection_1">
    <defs>
     <path d="M 211.733074 -478.828474 
L 190.866926 -478.828474 
L 187.341706 -481.52013 
L 183.047809 -484.211787 
L 177.972925 -486.903443 
L 172.161433 -489.595099 
L 165.725508 -492.286755 
L 158.850571 -494.978411 
L 151.792887 -497.670067 
L 144.86793 -500.361724 
L 138.429492 -503.05338 
L 132.840995 -505.745036 
L 128.442071 -508.436692 
L 125.514576 -511.128348 
L 124.252741 -513.820004 
L 124.74186 -516.511661 
L 126.948745 -519.203317 
L 130.725445 -521.894973 
L 135.825634 -524.586629 
L 141.93115 -527.278285 
L 148.684683 -529.969941 
L 155.723955 -532.661598 
L 162.712856 -535.353254 
L 169.365898 -538.04491 
L 175.463778 -540.736566 
L 180.859374 -543.428222 
L 185.474977 -546.119878 
L 189.292595 -548.811535 
L 192.339765 -551.503191 
L 194.673384 -554.194847 
L 196.363756 -556.886503 
L 197.480564 -559.578159 
L 198.081847 -562.269815 
L 198.206579 -564.961472 
L 197.871035 -567.653128 
L 197.068917 -570.344784 
L 195.775041 -573.03644 
L 193.952308 -575.728096 
L 191.561482 -578.419752 
L 188.57308 -581.111409 
L 184.980305 -583.803065 
L 180.811603 -586.494721 
L 176.141067 -589.186377 
L 171.09483 -591.878033 
L 165.851735 -594.569689 
L 160.637099 -597.261346 
L 155.709311 -599.953002 
L 151.340083 -602.644658 
L 147.790349 -605.336314 
L 145.284769 -608.02797 
L 143.988312 -610.719626 
L 143.988328 -613.411283 
L 145.284824 -616.102939 
L 147.79048 -618.794595 
L 151.340367 -621.486251 
L 155.709907 -624.177907 
L 160.638317 -626.869563 
L 165.854171 -629.56122 
L 171.09959 -632.252876 
L 176.150158 -634.944532 
L 180.828574 -637.636188 
L 185.011268 -640.327844 
L 188.628293 -643.0195 
L 191.657712 -645.711157 
L 194.11623 -648.402813 
L 196.047954 -651.094469 
L 197.513011 -653.786125 
L 198.577334 -656.477781 
L 199.304483 -659.169437 
L 199.749875 -661.861094 
L 199.957443 -664.55275 
L 199.958507 -667.244406 
L 199.772506 -669.936062 
L 199.4092 -672.627718 
L 198.871957 -675.319374 
L 198.161747 -678.011031 
L 197.281455 -680.702687 
L 196.240065 -683.394343 
L 195.056264 -686.085999 
L 193.760973 -688.777655 
L 192.398342 -691.469311 
L 191.024899 -694.160968 
L 189.706723 -696.852624 
L 188.514804 -699.54428 
L 187.519047 -702.235936 
L 186.781651 -704.927592 
L 186.350752 -707.619248 
L 186.255258 -710.310905 
L 186.501658 -713.002561 
L 187.073302 -715.694217 
L 187.932264 -718.385873 
L 189.02351 -721.077529 
L 190.28072 -723.769185 
L 191.63293 -726.460842 
L 193.011058 -729.152498 
L 194.353501 -731.844154 
L 195.610221 -734.53581 
L 196.745009 -737.227466 
L 197.735963 -739.919122 
L 198.574416 -742.610779 
L 199.262773 -745.302435 
L 203.337227 -745.302435 
L 203.337227 -745.302435 
L 204.025584 -742.610779 
L 204.864037 -739.919122 
L 205.854991 -737.227466 
L 206.989779 -734.53581 
L 208.246499 -731.844154 
L 209.588942 -729.152498 
L 210.96707 -726.460842 
L 212.31928 -723.769185 
L 213.57649 -721.077529 
L 214.667736 -718.385873 
L 215.526698 -715.694217 
L 216.098342 -713.002561 
L 216.344742 -710.310905 
L 216.249248 -707.619248 
L 215.818349 -704.927592 
L 215.080953 -702.235936 
L 214.085196 -699.54428 
L 212.893277 -696.852624 
L 211.575101 -694.160968 
L 210.201658 -691.469311 
L 208.839027 -688.777655 
L 207.543736 -686.085999 
L 206.359935 -683.394343 
L 205.318545 -680.702687 
L 204.438253 -678.011031 
L 203.728043 -675.319374 
L 203.1908 -672.627718 
L 202.827494 -669.936062 
L 202.641493 -667.244406 
L 202.642557 -664.55275 
L 202.850125 -661.861094 
L 203.295517 -659.169437 
L 204.022666 -656.477781 
L 205.086989 -653.786125 
L 206.552046 -651.094469 
L 208.48377 -648.402813 
L 210.942288 -645.711157 
L 213.971707 -643.0195 
L 217.588732 -640.327844 
L 221.771426 -637.636188 
L 226.449842 -634.944532 
L 231.50041 -632.252876 
L 236.745829 -629.56122 
L 241.961683 -626.869563 
L 246.890093 -624.177907 
L 251.259633 -621.486251 
L 254.80952 -618.794595 
L 257.315176 -616.102939 
L 258.611672 -613.411283 
L 258.611688 -610.719626 
L 257.315231 -608.02797 
L 254.809651 -605.336314 
L 251.259917 -602.644658 
L 246.890689 -599.953002 
L 241.962901 -597.261346 
L 236.748265 -594.569689 
L 231.50517 -591.878033 
L 226.458933 -589.186377 
L 221.788397 -586.494721 
L 217.619695 -583.803065 
L 214.02692 -581.111409 
L 211.038518 -578.419752 
L 208.647692 -575.728096 
L 206.824959 -573.03644 
L 205.531083 -570.344784 
L 204.728965 -567.653128 
L 204.393421 -564.961472 
L 204.518153 -562.269815 
L 205.119436 -559.578159 
L 206.236244 -556.886503 
L 207.926616 -554.194847 
L 210.260235 -551.503191 
L 213.307405 -548.811535 
L 217.125023 -546.119878 
L 221.740626 -543.428222 
L 227.136222 -540.736566 
L 233.234102 -538.04491 
L 239.887144 -535.353254 
L 246.876045 -532.661598 
L 253.915317 -529.969941 
L 260.66885 -527.278285 
L 266.774366 -524.586629 
L 271.874555 -521.894973 
L 275.651255 -519.203317 
L 277.85814 -516.511661 
L 278.347259 -513.820004 
L 277.085424 -511.128348 
L 274.157929 -508.436692 
L 269.759005 -505.745036 
L 264.170508 -503.05338 
L 257.73207 -500.361724 
L 250.807113 -497.670067 
L 243.749429 -494.978411 
L 236.874492 -492.286755 
L 230.438567 -489.595099 
L 224.627075 -486.903443 
L 219.552191 -484.211787 
L 215.258294 -481.52013 
L 211.733074 -478.828474 
z
" id="m9367e9fadb" style="stroke:#595959;stroke-width:1.75;"/>
    </defs>
    <g clip-path="url(#p38f3570f6d)">
     <use style="fill:#72b6a1;stroke:#595959;stroke-width:1.75;" x="0" xlink:href="#m9367e9fadb" y="864"/>
    </g>
   </g>
   <g id="PolyCollection_2">
    <defs>
     <path d="M 415.825052 -477.288595 
L 395.974948 -477.288595 
L 392.733919 -480.01136 
L 388.806231 -482.734125 
L 384.179156 -485.45689 
L 378.886981 -488.179654 
L 373.020355 -490.902419 
L 366.731344 -493.625184 
L 360.232442 -496.347949 
L 353.788393 -499.070714 
L 347.700572 -501.793479 
L 342.284853 -504.516243 
L 337.845017 -507.239008 
L 334.644742 -509.961773 
L 332.881733 -512.684538 
L 332.667507 -515.407303 
L 334.015718 -518.130068 
L 336.840694 -520.852832 
L 340.966428 -523.575597 
L 346.144669 -526.298362 
L 352.079536 -529.021127 
L 358.455216 -531.743892 
L 364.963142 -534.466657 
L 371.325381 -537.189421 
L 377.311847 -539.912186 
L 382.750088 -542.634951 
L 387.527526 -545.357716 
L 391.58708 -548.080481 
L 394.917779 -550.803246 
L 397.542329 -553.526011 
L 399.503598 -556.248775 
L 400.851768 -558.97154 
L 401.633473 -561.694305 
L 401.883859 -564.41707 
L 401.622071 -567.139835 
L 400.85036 -569.8626 
L 399.556714 -572.585364 
L 397.720698 -575.308129 
L 395.321929 -578.030894 
L 392.350367 -580.753659 
L 388.817296 -583.476424 
L 384.76564 -586.199189 
L 380.278079 -588.921953 
L 375.481439 -591.644718 
L 370.546092 -594.367483 
L 365.679581 -597.090248 
L 361.114465 -599.813013 
L 357.091237 -602.535778 
L 353.838027 -605.258542 
L 351.549513 -607.981307 
L 350.36779 -610.704072 
L 350.367836 -613.426837 
L 351.549675 -616.149602 
L 353.838391 -618.872367 
L 357.091988 -621.595131 
L 361.115961 -624.317896 
L 365.682489 -627.040661 
L 370.551622 -629.763426 
L 375.491729 -632.486191 
L 380.296816 -635.208956 
L 384.799035 -637.931721 
L 388.875548 -640.654485 
L 392.449815 -643.37725 
L 395.488096 -646.100015 
L 397.992434 -648.82278 
L 399.991635 -651.545545 
L 401.531645 -654.26831 
L 402.666564 -656.991074 
L 403.451114 -659.713839 
L 403.935083 -662.436604 
L 404.159886 -665.159369 
L 404.157186 -667.882134 
L 403.949295 -670.604899 
L 403.551032 -673.327663 
L 402.972632 -676.050428 
L 402.223259 -678.773193 
L 401.314705 -681.495958 
L 400.264785 -684.218723 
L 399.100002 -686.941488 
L 397.857058 -689.664252 
L 396.582913 -692.387017 
L 395.333222 -695.109782 
L 394.169213 -697.832547 
L 393.153259 -700.555312 
L 392.343658 -703.278077 
L 391.789258 -706.000841 
L 391.524675 -708.723606 
L 391.566758 -711.446371 
L 391.912845 -714.169136 
L 392.541053 -716.891901 
L 393.41258 -719.614666 
L 394.475667 -722.337431 
L 395.670684 -725.060195 
L 396.935627 -727.78296 
L 398.211338 -730.505725 
L 399.445848 -733.22849 
L 400.597444 -735.951255 
L 401.636279 -738.67402 
L 402.544556 -741.396784 
L 403.315547 -744.119549 
L 403.951749 -746.842314 
L 407.848251 -746.842314 
L 407.848251 -746.842314 
L 408.484453 -744.119549 
L 409.255444 -741.396784 
L 410.163721 -738.67402 
L 411.202556 -735.951255 
L 412.354152 -733.22849 
L 413.588662 -730.505725 
L 414.864373 -727.78296 
L 416.129316 -725.060195 
L 417.324333 -722.337431 
L 418.38742 -719.614666 
L 419.258947 -716.891901 
L 419.887155 -714.169136 
L 420.233242 -711.446371 
L 420.275325 -708.723606 
L 420.010742 -706.000841 
L 419.456342 -703.278077 
L 418.646741 -700.555312 
L 417.630787 -697.832547 
L 416.466778 -695.109782 
L 415.217087 -692.387017 
L 413.942942 -689.664252 
L 412.699998 -686.941488 
L 411.535215 -684.218723 
L 410.485295 -681.495958 
L 409.576741 -678.773193 
L 408.827368 -676.050428 
L 408.248968 -673.327663 
L 407.850705 -670.604899 
L 407.642814 -667.882134 
L 407.640114 -665.159369 
L 407.864917 -662.436604 
L 408.348886 -659.713839 
L 409.133436 -656.991074 
L 410.268355 -654.26831 
L 411.808365 -651.545545 
L 413.807566 -648.82278 
L 416.311904 -646.100015 
L 419.350185 -643.37725 
L 422.924452 -640.654485 
L 427.000965 -637.931721 
L 431.503184 -635.208956 
L 436.308271 -632.486191 
L 441.248378 -629.763426 
L 446.117511 -627.040661 
L 450.684039 -624.317896 
L 454.708012 -621.595131 
L 457.961609 -618.872367 
L 460.250325 -616.149602 
L 461.432164 -613.426837 
L 461.43221 -610.704072 
L 460.250487 -607.981307 
L 457.961973 -605.258542 
L 454.708763 -602.535778 
L 450.685535 -599.813013 
L 446.120419 -597.090248 
L 441.253908 -594.367483 
L 436.318561 -591.644718 
L 431.521921 -588.921953 
L 427.03436 -586.199189 
L 422.982704 -583.476424 
L 419.449633 -580.753659 
L 416.478071 -578.030894 
L 414.079302 -575.308129 
L 412.243286 -572.585364 
L 410.94964 -569.8626 
L 410.177929 -567.139835 
L 409.916141 -564.41707 
L 410.166527 -561.694305 
L 410.948232 -558.97154 
L 412.296402 -556.248775 
L 414.257671 -553.526011 
L 416.882221 -550.803246 
L 420.21292 -548.080481 
L 424.272474 -545.357716 
L 429.049912 -542.634951 
L 434.488153 -539.912186 
L 440.474619 -537.189421 
L 446.836858 -534.466657 
L 453.344784 -531.743892 
L 459.720464 -529.021127 
L 465.655331 -526.298362 
L 470.833572 -523.575597 
L 474.959306 -520.852832 
L 477.784282 -518.130068 
L 479.132493 -515.407303 
L 478.918267 -512.684538 
L 477.155258 -509.961773 
L 473.954983 -507.239008 
L 469.515147 -504.516243 
L 464.099428 -501.793479 
L 458.011607 -499.070714 
L 451.567558 -496.347949 
L 445.068656 -493.625184 
L 438.779645 -490.902419 
L 432.913019 -488.179654 
L 427.620844 -485.45689 
L 422.993769 -482.734125 
L 419.066081 -480.01136 
L 415.825052 -477.288595 
z
" id="m1b8f4ef2d7" style="stroke:#595959;stroke-width:1.75;"/>
    </defs>
    <g clip-path="url(#p38f3570f6d)">
     <use style="fill:#e99675;stroke:#595959;stroke-width:1.75;" x="0" xlink:href="#m1b8f4ef2d7" y="864"/>
    </g>
   </g>
   <g id="PolyCollection_3">
    <defs>
     <path d="M 621.597009 -477.498169 
L 599.402991 -477.498169 
L 595.762795 -480.2167 
L 591.348408 -482.935231 
L 586.145726 -485.653762 
L 580.194179 -488.372293 
L 573.597357 -491.090824 
L 566.528685 -493.809355 
L 559.230157 -496.527886 
L 552.0028 -499.246417 
L 545.18864 -501.964948 
L 539.145241 -504.683479 
L 534.215251 -507.40201 
L 530.694454 -510.120541 
L 528.802451 -512.839072 
L 528.66 -515.557603 
L 530.276249 -518.276134 
L 533.547758 -520.994665 
L 538.269429 -523.713196 
L 544.155741 -526.431727 
L 550.86922 -529.150258 
L 558.052169 -531.868789 
L 565.357513 -534.58732 
L 572.475076 -537.305851 
L 579.150659 -540.024382 
L 585.196568 -542.742913 
L 590.493615 -545.461444 
L 594.985734 -548.179975 
L 598.669118 -550.898506 
L 601.578131 -553.617038 
L 603.770224 -556.335569 
L 605.311745 -559.0541 
L 606.266042 -561.772631 
L 606.684789 -564.491162 
L 606.602946 -567.209693 
L 606.037441 -569.928224 
L 604.989385 -572.646755 
L 603.449378 -575.365286 
L 601.405334 -578.083817 
L 598.851983 -580.802348 
L 595.801028 -583.520879 
L 592.290713 -586.23941 
L 588.393421 -588.957941 
L 584.219952 -591.676472 
L 579.919325 -594.395003 
L 575.673417 -597.113534 
L 571.686409 -599.832065 
L 568.169786 -602.550596 
L 565.324424 -605.269127 
L 563.321921 -607.987658 
L 562.28761 -610.706189 
L 562.287656 -613.42472 
L 563.322083 -616.143251 
L 565.324791 -618.861782 
L 568.170547 -621.580313 
L 571.687935 -624.298844 
L 575.676402 -627.017375 
L 579.925038 -629.735906 
L 584.230649 -632.454437 
L 588.41302 -635.172968 
L 592.325853 -637.891499 
L 595.862682 -640.61003 
L 598.957832 -643.328561 
L 601.583161 -646.047092 
L 603.741718 -648.765623 
L 605.459669 -651.484154 
L 606.77775 -654.202685 
L 607.743314 -656.921216 
L 608.40372 -659.639747 
L 608.801473 -662.358279 
L 608.971279 -665.07681 
L 608.938915 -667.795341 
L 608.721707 -670.513872 
L 608.330327 -673.232403 
L 607.771531 -675.950934 
L 607.051493 -678.669465 
L 606.179304 -681.387996 
L 605.170229 -684.106527 
L 604.048281 -686.825058 
L 602.847714 -689.543589 
L 601.613129 -692.26212 
L 600.398003 -694.980651 
L 599.261684 -697.699182 
L 598.26508 -700.417713 
L 597.465536 -703.136244 
L 596.911513 -705.854775 
L 596.637804 -708.573306 
L 596.661957 -711.291837 
L 596.982439 -714.010368 
L 597.578801 -716.728899 
L 598.41385 -719.44743 
L 599.437489 -722.165961 
L 600.591679 -724.884492 
L 601.815857 -727.603023 
L 603.05209 -730.321554 
L 604.249389 -733.040085 
L 605.366766 -735.758616 
L 606.374846 -738.477147 
L 607.256082 -741.195678 
L 608.003796 -743.914209 
L 608.620376 -746.63274 
L 612.379624 -746.63274 
L 612.379624 -746.63274 
L 612.996204 -743.914209 
L 613.743918 -741.195678 
L 614.625154 -738.477147 
L 615.633234 -735.758616 
L 616.750611 -733.040085 
L 617.94791 -730.321554 
L 619.184143 -727.603023 
L 620.408321 -724.884492 
L 621.562511 -722.165961 
L 622.58615 -719.44743 
L 623.421199 -716.728899 
L 624.017561 -714.010368 
L 624.338043 -711.291837 
L 624.362196 -708.573306 
L 624.088487 -705.854775 
L 623.534464 -703.136244 
L 622.73492 -700.417713 
L 621.738316 -697.699182 
L 620.601997 -694.980651 
L 619.386871 -692.26212 
L 618.152286 -689.543589 
L 616.951719 -686.825058 
L 615.829771 -684.106527 
L 614.820696 -681.387996 
L 613.948507 -678.669465 
L 613.228469 -675.950934 
L 612.669673 -673.232403 
L 612.278293 -670.513872 
L 612.061085 -667.795341 
L 612.028721 -665.07681 
L 612.198527 -662.358279 
L 612.59628 -659.639747 
L 613.256686 -656.921216 
L 614.22225 -654.202685 
L 615.540331 -651.484154 
L 617.258282 -648.765623 
L 619.416839 -646.047092 
L 622.042168 -643.328561 
L 625.137318 -640.61003 
L 628.674147 -637.891499 
L 632.58698 -635.172968 
L 636.769351 -632.454437 
L 641.074962 -629.735906 
L 645.323598 -627.017375 
L 649.312065 -624.298844 
L 652.829453 -621.580313 
L 655.675209 -618.861782 
L 657.677917 -616.143251 
L 658.712344 -613.42472 
L 658.71239 -610.706189 
L 657.678079 -607.987658 
L 655.675576 -605.269127 
L 652.830214 -602.550596 
L 649.313591 -599.832065 
L 645.326583 -597.113534 
L 641.080675 -594.395003 
L 636.780048 -591.676472 
L 632.606579 -588.957941 
L 628.709287 -586.23941 
L 625.198972 -583.520879 
L 622.148017 -580.802348 
L 619.594666 -578.083817 
L 617.550622 -575.365286 
L 616.010615 -572.646755 
L 614.962559 -569.928224 
L 614.397054 -567.209693 
L 614.315211 -564.491162 
L 614.733958 -561.772631 
L 615.688255 -559.0541 
L 617.229776 -556.335569 
L 619.421869 -553.617038 
L 622.330882 -550.898506 
L 626.014266 -548.179975 
L 630.506385 -545.461444 
L 635.803432 -542.742913 
L 641.849341 -540.024382 
L 648.524924 -537.305851 
L 655.642487 -534.58732 
L 662.947831 -531.868789 
L 670.13078 -529.150258 
L 676.844259 -526.431727 
L 682.730571 -523.713196 
L 687.452242 -520.994665 
L 690.723751 -518.276134 
L 692.34 -515.557603 
L 692.197549 -512.839072 
L 690.305546 -510.120541 
L 686.784749 -507.40201 
L 681.854759 -504.683479 
L 675.81136 -501.964948 
L 668.9972 -499.246417 
L 661.769843 -496.527886 
L 654.471315 -493.809355 
L 647.402643 -491.090824 
L 640.805821 -488.372293 
L 634.854274 -485.653762 
L 629.651592 -482.935231 
L 625.237205 -480.2167 
L 621.597009 -477.498169 
z
" id="meb688b8eb3" style="stroke:#595959;stroke-width:1.75;"/>
    </defs>
    <g clip-path="url(#p38f3570f6d)">
     <use style="fill:#95a3c3;stroke:#595959;stroke-width:1.75;" x="0" xlink:href="#meb688b8eb3" y="864"/>
    </g>
   </g>
   <g id="line2d_18">
    <path clip-path="url(#p38f3570f6d)" d="M 201.3 349.583349 
L 201.3 154.285742 
" style="fill:none;stroke:#595959;stroke-linecap:round;stroke-width:1.75;"/>
   </g>
   <g id="line2d_19">
    <path clip-path="url(#p38f3570f6d)" d="M 201.3 349.583349 
L 201.3 251.934545 
" style="fill:none;stroke:#595959;stroke-linecap:round;stroke-width:5.25;"/>
   </g>
   <g id="line2d_20">
    <path clip-path="url(#p38f3570f6d)" d="M 405.9 349.583349 
L 405.9 154.285742 
" style="fill:none;stroke:#595959;stroke-linecap:round;stroke-width:1.75;"/>
   </g>
   <g id="line2d_21">
    <path clip-path="url(#p38f3570f6d)" d="M 405.9 349.583349 
L 405.9 251.934545 
" style="fill:none;stroke:#595959;stroke-linecap:round;stroke-width:5.25;"/>
   </g>
   <g id="line2d_22">
    <path clip-path="url(#p38f3570f6d)" d="M 610.5 349.583349 
L 610.5 154.285742 
" style="fill:none;stroke:#595959;stroke-linecap:round;stroke-width:1.75;"/>
   </g>
   <g id="line2d_23">
    <path clip-path="url(#p38f3570f6d)" d="M 610.5 349.583349 
L 610.5 251.934545 
" style="fill:none;stroke:#595959;stroke-linecap:round;stroke-width:5.25;"/>
   </g>
   <g id="patch_3">
    <path d="M 99 400.189091 
L 99 103.68 
" style="fill:none;"/>
   </g>
   <g id="patch_4">
    <path d="M 712.8 400.189091 
L 712.8 103.68 
" style="fill:none;"/>
   </g>
   <g id="patch_5">
    <path d="M 99 400.189091 
L 712.8 400.189091 
" style="fill:none;"/>
   </g>
   <g id="patch_6">
    <path d="M 99 103.68 
L 712.8 103.68 
" style="fill:none;"/>
   </g>
   <g id="PathCollection_1">
    <defs>
     <path d="M 0 1.75 
C 0.464105 1.75 0.909265 1.565609 1.237437 1.237437 
C 1.565609 0.909265 1.75 0.464105 1.75 0 
C 1.75 -0.464105 1.565609 -0.909265 1.237437 -1.237437 
C 0.909265 -1.565609 0.464105 -1.75 0 -1.75 
C -0.464105 -1.75 -0.909265 -1.565609 -1.237437 -1.237437 
C -1.565609 -0.909265 -1.75 -0.464105 -1.75 0 
C -1.75 0.464105 -1.565609 0.909265 -1.237437 1.237437 
C -0.909265 1.565609 -0.464105 1.75 0 1.75 
z
" id="m439bb2cd5d" style="stroke:#595959;stroke-width:0.3;"/>
    </defs>
    <g clip-path="url(#p38f3570f6d)">
     <use style="fill:#ffffff;stroke:#595959;stroke-width:0.3;" x="201.3" xlink:href="#m439bb2cd5d" y="349.583349"/>
    </g>
   </g>
   <g id="PathCollection_2">
    <g clip-path="url(#p38f3570f6d)">
     <use style="fill:#ffffff;stroke:#595959;stroke-width:0.3;" x="405.9" xlink:href="#m439bb2cd5d" y="349.583349"/>
    </g>
   </g>
   <g id="PathCollection_3">
    <g clip-path="url(#p38f3570f6d)">
     <use style="fill:#ffffff;stroke:#595959;stroke-width:0.3;" x="610.5" xlink:href="#m439bb2cd5d" y="349.583349"/>
    </g>
   </g>
  </g>
  <g id="axes_2">
   <g id="patch_7">
    <path d="M 99 756 
L 712.8 756 
L 712.8 459.490909 
L 99 459.490909 
z
" style="fill:#eaeaf2;"/>
   </g>
   <g id="matplotlib.axis_3">
    <g id="xtick_4">
     <g id="line2d_24"/>
     <g id="text_13">
      <!-- MCI -->
      <g style="fill:#262626;" transform="translate(187.552734 773.736719)scale(0.15 -0.15)">
       <use xlink:href="#ArialMT-4d"/>
       <use x="83.300781" xlink:href="#ArialMT-43"/>
       <use x="155.517578" xlink:href="#ArialMT-49"/>
      </g>
     </g>
    </g>
    <g id="xtick_5">
     <g id="line2d_25"/>
     <g id="text_14">
      <!-- AD -->
      <g style="fill:#262626;" transform="translate(395.480859 773.736719)scale(0.15 -0.15)">
       <use xlink:href="#ArialMT-41"/>
       <use x="66.699219" xlink:href="#ArialMT-44"/>
      </g>
     </g>
    </g>
    <g id="xtick_6">
     <g id="line2d_26"/>
     <g id="text_15">
      <!-- CN -->
      <g style="fill:#262626;" transform="translate(599.667187 773.736719)scale(0.15 -0.15)">
       <use xlink:href="#ArialMT-43"/>
       <use x="72.216797" xlink:href="#ArialMT-4e"/>
      </g>
     </g>
    </g>
    <g id="text_16">
     <!-- Diagnosis category -->
     <g style="fill:#262626;" transform="translate(335.742773 792.528359)scale(0.165 -0.165)">
      <use xlink:href="#ArialMT-44"/>
      <use x="72.216797" xlink:href="#ArialMT-69"/>
      <use x="94.433594" xlink:href="#ArialMT-61"/>
      <use x="150.048828" xlink:href="#ArialMT-67"/>
      <use x="205.664062" xlink:href="#ArialMT-6e"/>
      <use x="261.279297" xlink:href="#ArialMT-6f"/>
      <use x="316.894531" xlink:href="#ArialMT-73"/>
      <use x="366.894531" xlink:href="#ArialMT-69"/>
      <use x="389.111328" xlink:href="#ArialMT-73"/>
      <use x="439.111328" xlink:href="#ArialMT-20"/>
      <use x="466.894531" xlink:href="#ArialMT-63"/>
      <use x="516.894531" xlink:href="#ArialMT-61"/>
      <use x="572.509766" xlink:href="#ArialMT-74"/>
      <use x="600.292969" xlink:href="#ArialMT-65"/>
      <use x="655.908203" xlink:href="#ArialMT-67"/>
      <use x="711.523438" xlink:href="#ArialMT-6f"/>
      <use x="767.138672" xlink:href="#ArialMT-72"/>
      <use x="800.439453" xlink:href="#ArialMT-79"/>
     </g>
    </g>
   </g>
   <g id="matplotlib.axis_4">
    <g id="ytick_8">
     <g id="line2d_27">
      <path clip-path="url(#p4239580a5c)" d="M 99 743.281832 
L 712.8 743.281832 
" style="fill:none;stroke:#ffffff;stroke-linecap:round;"/>
     </g>
     <g id="line2d_28"/>
     <g id="text_17">
      <!-- 0.6 -->
      <defs>
       <path d="M 49.75 54.046875 
L 41.015625 53.375 
Q 39.84375 58.546875 37.703125 60.890625 
Q 34.125 64.65625 28.90625 64.65625 
Q 24.703125 64.65625 21.53125 62.3125 
Q 17.390625 59.28125 14.984375 53.46875 
Q 12.59375 47.65625 12.5 36.921875 
Q 15.671875 41.75 20.265625 44.09375 
Q 24.859375 46.4375 29.890625 46.4375 
Q 38.671875 46.4375 44.84375 39.96875 
Q 51.03125 33.5 51.03125 23.25 
Q 51.03125 16.5 48.125 10.71875 
Q 45.21875 4.9375 40.140625 1.859375 
Q 35.0625 -1.21875 28.609375 -1.21875 
Q 17.625 -1.21875 10.6875 6.859375 
Q 3.765625 14.9375 3.765625 33.5 
Q 3.765625 54.25 11.421875 63.671875 
Q 18.109375 71.875 29.4375 71.875 
Q 37.890625 71.875 43.28125 67.140625 
Q 48.6875 62.40625 49.75 54.046875 
z
M 13.875 23.1875 
Q 13.875 18.65625 15.796875 14.5 
Q 17.71875 10.359375 21.1875 8.171875 
Q 24.65625 6 28.46875 6 
Q 34.03125 6 38.03125 10.484375 
Q 42.046875 14.984375 42.046875 22.703125 
Q 42.046875 30.125 38.078125 34.390625 
Q 34.125 38.671875 28.125 38.671875 
Q 22.171875 38.671875 18.015625 34.390625 
Q 13.875 30.125 13.875 23.1875 
z
" id="ArialMT-36"/>
      </defs>
      <g style="fill:#262626;" transform="translate(71.15 748.650192)scale(0.15 -0.15)">
       <use xlink:href="#ArialMT-30"/>
       <use x="55.615234" xlink:href="#ArialMT-2e"/>
       <use x="83.398438" xlink:href="#ArialMT-36"/>
      </g>
     </g>
    </g>
    <g id="ytick_9">
     <g id="line2d_29">
      <path clip-path="url(#p4239580a5c)" d="M 99 697.851332 
L 712.8 697.851332 
" style="fill:none;stroke:#ffffff;stroke-linecap:round;"/>
     </g>
     <g id="line2d_30"/>
     <g id="text_18">
      <!-- 0.8 -->
      <defs>
       <path d="M 17.671875 38.8125 
Q 12.203125 40.828125 9.5625 44.53125 
Q 6.9375 48.25 6.9375 53.421875 
Q 6.9375 61.234375 12.546875 66.546875 
Q 18.171875 71.875 27.484375 71.875 
Q 36.859375 71.875 42.578125 66.421875 
Q 48.296875 60.984375 48.296875 53.171875 
Q 48.296875 48.1875 45.671875 44.5 
Q 43.0625 40.828125 37.75 38.8125 
Q 44.34375 36.671875 47.78125 31.875 
Q 51.21875 27.09375 51.21875 20.453125 
Q 51.21875 11.28125 44.71875 5.03125 
Q 38.234375 -1.21875 27.640625 -1.21875 
Q 17.046875 -1.21875 10.546875 5.046875 
Q 4.046875 11.328125 4.046875 20.703125 
Q 4.046875 27.6875 7.59375 32.390625 
Q 11.140625 37.109375 17.671875 38.8125 
z
M 15.921875 53.71875 
Q 15.921875 48.640625 19.1875 45.40625 
Q 22.46875 42.1875 27.6875 42.1875 
Q 32.765625 42.1875 36.015625 45.375 
Q 39.265625 48.578125 39.265625 53.21875 
Q 39.265625 58.0625 35.90625 61.359375 
Q 32.5625 64.65625 27.59375 64.65625 
Q 22.5625 64.65625 19.234375 61.421875 
Q 15.921875 58.203125 15.921875 53.71875 
z
M 13.09375 20.65625 
Q 13.09375 16.890625 14.875 13.375 
Q 16.65625 9.859375 20.171875 7.921875 
Q 23.6875 6 27.734375 6 
Q 34.03125 6 38.125 10.046875 
Q 42.234375 14.109375 42.234375 20.359375 
Q 42.234375 26.703125 38.015625 30.859375 
Q 33.796875 35.015625 27.4375 35.015625 
Q 21.234375 35.015625 17.15625 30.90625 
Q 13.09375 26.8125 13.09375 20.65625 
z
" id="ArialMT-38"/>
      </defs>
      <g style="fill:#262626;" transform="translate(71.15 703.219692)scale(0.15 -0.15)">
       <use xlink:href="#ArialMT-30"/>
       <use x="55.615234" xlink:href="#ArialMT-2e"/>
       <use x="83.398438" xlink:href="#ArialMT-38"/>
      </g>
     </g>
    </g>
    <g id="ytick_10">
     <g id="line2d_31">
      <path clip-path="url(#p4239580a5c)" d="M 99 652.420832 
L 712.8 652.420832 
" style="fill:none;stroke:#ffffff;stroke-linecap:round;"/>
     </g>
     <g id="line2d_32"/>
     <g id="text_19">
      <!-- 1.0 -->
      <g style="fill:#262626;" transform="translate(71.15 657.789192)scale(0.15 -0.15)">
       <use xlink:href="#ArialMT-31"/>
       <use x="55.615234" xlink:href="#ArialMT-2e"/>
       <use x="83.398438" xlink:href="#ArialMT-30"/>
      </g>
     </g>
    </g>
    <g id="ytick_11">
     <g id="line2d_33">
      <path clip-path="url(#p4239580a5c)" d="M 99 606.990332 
L 712.8 606.990332 
" style="fill:none;stroke:#ffffff;stroke-linecap:round;"/>
     </g>
     <g id="line2d_34"/>
     <g id="text_20">
      <!-- 1.2 -->
      <g style="fill:#262626;" transform="translate(71.15 612.358691)scale(0.15 -0.15)">
       <use xlink:href="#ArialMT-31"/>
       <use x="55.615234" xlink:href="#ArialMT-2e"/>
       <use x="83.398438" xlink:href="#ArialMT-32"/>
      </g>
     </g>
    </g>
    <g id="ytick_12">
     <g id="line2d_35">
      <path clip-path="url(#p4239580a5c)" d="M 99 561.559832 
L 712.8 561.559832 
" style="fill:none;stroke:#ffffff;stroke-linecap:round;"/>
     </g>
     <g id="line2d_36"/>
     <g id="text_21">
      <!-- 1.4 -->
      <g style="fill:#262626;" transform="translate(71.15 566.928191)scale(0.15 -0.15)">
       <use xlink:href="#ArialMT-31"/>
       <use x="55.615234" xlink:href="#ArialMT-2e"/>
       <use x="83.398438" xlink:href="#ArialMT-34"/>
      </g>
     </g>
    </g>
    <g id="ytick_13">
     <g id="line2d_37">
      <path clip-path="url(#p4239580a5c)" d="M 99 516.129332 
L 712.8 516.129332 
" style="fill:none;stroke:#ffffff;stroke-linecap:round;"/>
     </g>
     <g id="line2d_38"/>
     <g id="text_22">
      <!-- 1.6 -->
      <g style="fill:#262626;" transform="translate(71.15 521.497691)scale(0.15 -0.15)">
       <use xlink:href="#ArialMT-31"/>
       <use x="55.615234" xlink:href="#ArialMT-2e"/>
       <use x="83.398438" xlink:href="#ArialMT-36"/>
      </g>
     </g>
    </g>
    <g id="ytick_14">
     <g id="line2d_39">
      <path clip-path="url(#p4239580a5c)" d="M 99 470.698832 
L 712.8 470.698832 
" style="fill:none;stroke:#ffffff;stroke-linecap:round;"/>
     </g>
     <g id="line2d_40"/>
     <g id="text_23">
      <!-- 1.8 -->
      <g style="fill:#262626;" transform="translate(71.15 476.067191)scale(0.15 -0.15)">
       <use xlink:href="#ArialMT-31"/>
       <use x="55.615234" xlink:href="#ArialMT-2e"/>
       <use x="83.398438" xlink:href="#ArialMT-38"/>
      </g>
     </g>
    </g>
    <g id="text_24">
     <!-- FDG_bl -->
     <defs>
      <path d="M 8.203125 0 
L 8.203125 71.578125 
L 56.5 71.578125 
L 56.5 63.140625 
L 17.671875 63.140625 
L 17.671875 40.96875 
L 51.265625 40.96875 
L 51.265625 32.515625 
L 17.671875 32.515625 
L 17.671875 0 
z
" id="ArialMT-46"/>
      <path d="M 41.21875 28.078125 
L 41.21875 36.46875 
L 71.53125 36.53125 
L 71.53125 9.96875 
Q 64.546875 4.390625 57.125 1.578125 
Q 49.703125 -1.21875 41.890625 -1.21875 
Q 31.34375 -1.21875 22.71875 3.296875 
Q 14.109375 7.8125 9.71875 16.359375 
Q 5.328125 24.90625 5.328125 35.453125 
Q 5.328125 45.90625 9.6875 54.953125 
Q 14.0625 64.015625 22.265625 68.40625 
Q 30.46875 72.796875 41.15625 72.796875 
Q 48.921875 72.796875 55.1875 70.28125 
Q 61.46875 67.78125 65.03125 63.28125 
Q 68.609375 58.796875 70.453125 51.5625 
L 61.921875 49.21875 
Q 60.296875 54.6875 57.90625 57.8125 
Q 55.515625 60.9375 51.0625 62.8125 
Q 46.625 64.703125 41.21875 64.703125 
Q 34.71875 64.703125 29.984375 62.71875 
Q 25.25 60.75 22.34375 57.515625 
Q 19.4375 54.296875 17.828125 50.4375 
Q 15.09375 43.796875 15.09375 36.03125 
Q 15.09375 26.46875 18.390625 20.015625 
Q 21.6875 13.578125 27.984375 10.453125 
Q 34.28125 7.328125 41.359375 7.328125 
Q 47.515625 7.328125 53.375 9.6875 
Q 59.234375 12.0625 62.25 14.75 
L 62.25 28.078125 
z
" id="ArialMT-47"/>
      <path d="M -1.515625 -19.875 
L -1.515625 -13.53125 
L 56.734375 -13.53125 
L 56.734375 -19.875 
z
" id="ArialMT-5f"/>
      <path d="M 14.703125 0 
L 6.546875 0 
L 6.546875 71.578125 
L 15.328125 71.578125 
L 15.328125 46.046875 
Q 20.90625 53.03125 29.546875 53.03125 
Q 34.328125 53.03125 38.59375 51.09375 
Q 42.875 49.171875 45.625 45.671875 
Q 48.390625 42.1875 49.953125 37.25 
Q 51.515625 32.328125 51.515625 26.703125 
Q 51.515625 13.375 44.921875 6.09375 
Q 38.328125 -1.171875 29.109375 -1.171875 
Q 19.921875 -1.171875 14.703125 6.5 
z
M 14.59375 26.3125 
Q 14.59375 17 17.140625 12.84375 
Q 21.296875 6.0625 28.375 6.0625 
Q 34.125 6.0625 38.328125 11.0625 
Q 42.53125 16.0625 42.53125 25.984375 
Q 42.53125 36.140625 38.5 40.96875 
Q 34.46875 45.796875 28.765625 45.796875 
Q 23 45.796875 18.796875 40.796875 
Q 14.59375 35.796875 14.59375 26.3125 
z
" id="ArialMT-62"/>
      <path d="M 6.390625 0 
L 6.390625 71.578125 
L 15.1875 71.578125 
L 15.1875 0 
z
" id="ArialMT-6c"/>
     </defs>
     <g style="fill:#262626;" transform="translate(63.870625 636.167994)rotate(-90)scale(0.165 -0.165)">
      <use xlink:href="#ArialMT-46"/>
      <use x="61.083984" xlink:href="#ArialMT-44"/>
      <use x="133.300781" xlink:href="#ArialMT-47"/>
      <use x="211.083984" xlink:href="#ArialMT-5f"/>
      <use x="266.699219" xlink:href="#ArialMT-62"/>
      <use x="322.314453" xlink:href="#ArialMT-6c"/>
     </g>
    </g>
   </g>
   <g id="PolyCollection_4">
    <defs>
     <path d="M 201.396712 -128.138841 
L 201.203288 -128.138841 
L 201.128592 -130.794321 
L 201.012321 -133.449802 
L 200.841937 -136.105282 
L 200.606734 -138.760763 
L 200.300823 -141.416243 
L 199.926082 -144.071724 
L 199.49408 -146.727204 
L 199.025919 -149.382684 
L 198.549258 -152.038165 
L 198.0927 -154.693645 
L 197.678928 -157.349126 
L 197.319012 -160.004606 
L 197.010387 -162.660087 
L 196.739515 -165.315567 
L 196.487794 -167.971048 
L 196.237102 -170.626528 
L 195.971268 -173.282008 
L 195.672215 -175.937489 
L 195.31325 -178.592969 
L 194.854407 -181.24845 
L 194.243996 -183.90393 
L 193.426874 -186.559411 
L 192.356155 -189.214891 
L 191.003751 -191.870372 
L 189.366894 -194.525852 
L 187.470655 -197.181332 
L 185.367683 -199.836813 
L 183.13509 -202.492293 
L 180.866311 -205.147774 
L 178.655528 -207.803254 
L 176.575099 -210.458735 
L 174.651145 -213.114215 
L 172.845808 -215.769696 
L 171.054459 -218.425176 
L 169.121886 -221.080657 
L 166.875308 -223.736137 
L 164.16665 -226.391617 
L 160.913876 -229.047098 
L 157.131326 -231.702578 
L 152.941136 -234.358059 
L 148.561225 -237.013539 
L 144.270061 -239.66902 
L 140.354554 -242.3245 
L 137.053328 -244.979981 
L 134.510539 -247.635461 
L 132.752808 -250.290941 
L 131.694204 -252.946422 
L 131.16511 -255.601902 
L 130.954694 -258.257383 
L 130.85591 -260.912863 
L 130.705123 -263.568344 
L 130.412238 -266.223824 
L 129.978882 -268.879305 
L 129.501721 -271.534785 
L 129.157729 -274.190265 
L 129.170676 -276.845746 
L 129.763733 -279.501226 
L 131.109412 -282.156707 
L 133.291026 -284.812187 
L 136.286747 -287.467668 
L 139.979081 -290.123148 
L 144.18359 -292.778629 
L 148.685699 -295.434109 
L 153.275312 -298.089589 
L 157.773441 -300.74507 
L 162.04925 -303.40055 
L 166.027391 -306.056031 
L 169.685266 -308.711511 
L 173.040347 -311.366992 
L 176.130339 -314.022472 
L 178.992325 -316.677953 
L 181.648299 -319.333433 
L 184.101873 -321.988913 
L 186.345538 -324.644394 
L 188.372779 -327.299874 
L 190.187666 -329.955355 
L 191.806903 -332.610835 
L 193.254106 -335.266316 
L 194.55033 -337.921796 
L 195.706444 -340.577277 
L 196.72131 -343.232757 
L 197.586347 -345.888237 
L 198.293788 -348.543718 
L 198.844516 -351.199198 
L 199.252123 -353.854679 
L 199.542028 -356.510159 
L 199.746768 -359.16564 
L 199.89976 -361.82112 
L 200.029772 -364.476601 
L 200.157388 -367.132081 
L 200.29373 -369.787561 
L 200.441084 -372.443042 
L 200.594906 -375.098522 
L 200.746642 -377.754003 
L 200.886785 -380.409483 
L 201.007511 -383.064964 
L 201.104356 -385.720444 
L 201.176644 -388.375925 
L 201.226836 -391.031405 
L 201.373164 -391.031405 
L 201.373164 -391.031405 
L 201.423356 -388.375925 
L 201.495644 -385.720444 
L 201.592489 -383.064964 
L 201.713215 -380.409483 
L 201.853358 -377.754003 
L 202.005094 -375.098522 
L 202.158916 -372.443042 
L 202.30627 -369.787561 
L 202.442612 -367.132081 
L 202.570228 -364.476601 
L 202.70024 -361.82112 
L 202.853232 -359.16564 
L 203.057972 -356.510159 
L 203.347877 -353.854679 
L 203.755484 -351.199198 
L 204.306212 -348.543718 
L 205.013653 -345.888237 
L 205.87869 -343.232757 
L 206.893556 -340.577277 
L 208.04967 -337.921796 
L 209.345894 -335.266316 
L 210.793097 -332.610835 
L 212.412334 -329.955355 
L 214.227221 -327.299874 
L 216.254462 -324.644394 
L 218.498127 -321.988913 
L 220.951701 -319.333433 
L 223.607675 -316.677953 
L 226.469661 -314.022472 
L 229.559653 -311.366992 
L 232.914734 -308.711511 
L 236.572609 -306.056031 
L 240.55075 -303.40055 
L 244.826559 -300.74507 
L 249.324688 -298.089589 
L 253.914301 -295.434109 
L 258.41641 -292.778629 
L 262.620919 -290.123148 
L 266.313253 -287.467668 
L 269.308974 -284.812187 
L 271.490588 -282.156707 
L 272.836267 -279.501226 
L 273.429324 -276.845746 
L 273.442271 -274.190265 
L 273.098279 -271.534785 
L 272.621118 -268.879305 
L 272.187762 -266.223824 
L 271.894877 -263.568344 
L 271.74409 -260.912863 
L 271.645306 -258.257383 
L 271.43489 -255.601902 
L 270.905796 -252.946422 
L 269.847192 -250.290941 
L 268.089461 -247.635461 
L 265.546672 -244.979981 
L 262.245446 -242.3245 
L 258.329939 -239.66902 
L 254.038775 -237.013539 
L 249.658864 -234.358059 
L 245.468674 -231.702578 
L 241.686124 -229.047098 
L 238.43335 -226.391617 
L 235.724692 -223.736137 
L 233.478114 -221.080657 
L 231.545541 -218.425176 
L 229.754192 -215.769696 
L 227.948855 -213.114215 
L 226.024901 -210.458735 
L 223.944472 -207.803254 
L 221.733689 -205.147774 
L 219.46491 -202.492293 
L 217.232317 -199.836813 
L 215.129345 -197.181332 
L 213.233106 -194.525852 
L 211.596249 -191.870372 
L 210.243845 -189.214891 
L 209.173126 -186.559411 
L 208.356004 -183.90393 
L 207.745593 -181.24845 
L 207.28675 -178.592969 
L 206.927785 -175.937489 
L 206.628732 -173.282008 
L 206.362898 -170.626528 
L 206.112206 -167.971048 
L 205.860485 -165.315567 
L 205.589613 -162.660087 
L 205.280988 -160.004606 
L 204.921072 -157.349126 
L 204.5073 -154.693645 
L 204.050742 -152.038165 
L 203.574081 -149.382684 
L 203.10592 -146.727204 
L 202.673918 -144.071724 
L 202.299177 -141.416243 
L 201.993266 -138.760763 
L 201.758063 -136.105282 
L 201.587679 -133.449802 
L 201.471408 -130.794321 
L 201.396712 -128.138841 
z
" id="mfbb3b274b1" style="stroke:#595959;stroke-width:1.75;"/>
    </defs>
    <g clip-path="url(#p4239580a5c)">
     <use style="fill:#72b6a1;stroke:#595959;stroke-width:1.75;" x="0" xlink:href="#mfbb3b274b1" y="864"/>
    </g>
   </g>
   <g id="PolyCollection_5">
    <defs>
     <path d="M 405.988841 -121.477686 
L 405.811159 -121.477686 
L 405.758492 -124.014277 
L 405.687749 -126.550867 
L 405.600006 -129.087458 
L 405.499991 -131.624048 
L 405.395858 -134.160639 
L 405.297522 -136.69723 
L 405.213731 -139.23382 
L 405.1487 -141.770411 
L 405.099525 -144.307002 
L 405.055463 -146.843592 
L 404.999483 -149.380183 
L 404.911545 -151.916774 
L 404.772428 -154.453364 
L 404.566817 -156.989955 
L 404.284911 -159.526546 
L 403.922539 -162.063136 
L 403.480311 -164.599727 
L 402.962347 -167.136317 
L 402.374837 -169.672908 
L 401.724373 -172.209499 
L 401.016052 -174.746089 
L 400.25167 -177.28268 
L 399.428575 -179.819271 
L 398.53962 -182.355861 
L 397.574029 -184.892452 
L 396.518496 -187.429043 
L 395.357874 -189.965633 
L 394.075594 -192.502224 
L 392.654917 -195.038814 
L 391.08223 -197.575405 
L 389.352526 -200.111996 
L 387.475184 -202.648586 
L 385.476781 -205.185177 
L 383.397971 -207.721768 
L 381.283774 -210.258358 
L 379.169942 -212.794949 
L 377.070533 -215.33154 
L 374.97214 -217.86813 
L 372.837993 -220.404721 
L 370.621288 -222.941311 
L 368.283138 -225.477902 
L 365.808209 -228.014493 
L 363.211485 -230.551083 
L 360.532792 -233.087674 
L 357.820742 -235.624265 
L 355.112441 -238.160855 
L 352.417609 -240.697446 
L 349.714239 -243.234037 
L 346.958278 -245.770627 
L 344.10405 -248.307218 
L 341.128187 -250.843808 
L 338.04919 -253.380399 
L 334.937302 -255.91699 
L 331.913237 -258.45358 
L 329.137409 -260.990171 
L 326.792603 -263.526762 
L 325.062955 -266.063352 
L 324.111674 -268.599943 
L 324.06 -271.136534 
L 324.970177 -273.673124 
L 326.835267 -276.209715 
L 329.577812 -278.746305 
L 333.057851 -281.282896 
L 337.08907 -283.819487 
L 341.460513 -286.356077 
L 345.960551 -288.892668 
L 350.399756 -291.429259 
L 354.629814 -293.965849 
L 358.556412 -296.50244 
L 362.144889 -299.039031 
L 365.417969 -301.575621 
L 368.445278 -304.112212 
L 371.324926 -306.648802 
L 374.158865 -309.185393 
L 377.026132 -311.721984 
L 379.960345 -314.258574 
L 382.93857 -316.795165 
L 385.886342 -319.331756 
L 388.698524 -321.868346 
L 391.269652 -324.404937 
L 393.523364 -326.941528 
L 395.43071 -329.478118 
L 397.011764 -332.014709 
L 398.321859 -334.551299 
L 399.429661 -337.08789 
L 400.396366 -339.624481 
L 401.263173 -342.161071 
L 402.049263 -344.697662 
L 402.757775 -347.234253 
L 403.384792 -349.770843 
L 403.926779 -352.307434 
L 404.384265 -354.844025 
L 404.762014 -357.380615 
L 405.067418 -359.917206 
L 405.30878 -362.453796 
L 405.494411 -364.990387 
L 405.632465 -367.526978 
L 405.731066 -370.063568 
L 405.798274 -372.600159 
L 406.001726 -372.600159 
L 406.001726 -372.600159 
L 406.068934 -370.063568 
L 406.167535 -367.526978 
L 406.305589 -364.990387 
L 406.49122 -362.453796 
L 406.732582 -359.917206 
L 407.037986 -357.380615 
L 407.415735 -354.844025 
L 407.873221 -352.307434 
L 408.415208 -349.770843 
L 409.042225 -347.234253 
L 409.750737 -344.697662 
L 410.536827 -342.161071 
L 411.403634 -339.624481 
L 412.370339 -337.08789 
L 413.478141 -334.551299 
L 414.788236 -332.014709 
L 416.36929 -329.478118 
L 418.276636 -326.941528 
L 420.530348 -324.404937 
L 423.101476 -321.868346 
L 425.913658 -319.331756 
L 428.86143 -316.795165 
L 431.839655 -314.258574 
L 434.773868 -311.721984 
L 437.641135 -309.185393 
L 440.475074 -306.648802 
L 443.354722 -304.112212 
L 446.382031 -301.575621 
L 449.655111 -299.039031 
L 453.243588 -296.50244 
L 457.170186 -293.965849 
L 461.400244 -291.429259 
L 465.839449 -288.892668 
L 470.339487 -286.356077 
L 474.71093 -283.819487 
L 478.742149 -281.282896 
L 482.222188 -278.746305 
L 484.964733 -276.209715 
L 486.829823 -273.673124 
L 487.74 -271.136534 
L 487.688326 -268.599943 
L 486.737045 -266.063352 
L 485.007397 -263.526762 
L 482.662591 -260.990171 
L 479.886763 -258.45358 
L 476.862698 -255.91699 
L 473.75081 -253.380399 
L 470.671813 -250.843808 
L 467.69595 -248.307218 
L 464.841722 -245.770627 
L 462.085761 -243.234037 
L 459.382391 -240.697446 
L 456.687559 -238.160855 
L 453.979258 -235.624265 
L 451.267208 -233.087674 
L 448.588515 -230.551083 
L 445.991791 -228.014493 
L 443.516862 -225.477902 
L 441.178712 -222.941311 
L 438.962007 -220.404721 
L 436.82786 -217.86813 
L 434.729467 -215.33154 
L 432.630058 -212.794949 
L 430.516226 -210.258358 
L 428.402029 -207.721768 
L 426.323219 -205.185177 
L 424.324816 -202.648586 
L 422.447474 -200.111996 
L 420.71777 -197.575405 
L 419.145083 -195.038814 
L 417.724406 -192.502224 
L 416.442126 -189.965633 
L 415.281504 -187.429043 
L 414.225971 -184.892452 
L 413.26038 -182.355861 
L 412.371425 -179.819271 
L 411.54833 -177.28268 
L 410.783948 -174.746089 
L 410.075627 -172.209499 
L 409.425163 -169.672908 
L 408.837653 -167.136317 
L 408.319689 -164.599727 
L 407.877461 -162.063136 
L 407.515089 -159.526546 
L 407.233183 -156.989955 
L 407.027572 -154.453364 
L 406.888455 -151.916774 
L 406.800517 -149.380183 
L 406.744537 -146.843592 
L 406.700475 -144.307002 
L 406.6513 -141.770411 
L 406.586269 -139.23382 
L 406.502478 -136.69723 
L 406.404142 -134.160639 
L 406.300009 -131.624048 
L 406.199994 -129.087458 
L 406.112251 -126.550867 
L 406.041508 -124.014277 
L 405.988841 -121.477686 
z
" id="m72438bc892" style="stroke:#595959;stroke-width:1.75;"/>
    </defs>
    <g clip-path="url(#p4239580a5c)">
     <use style="fill:#e99675;stroke:#595959;stroke-width:1.75;" x="0" xlink:href="#m72438bc892" y="864"/>
    </g>
   </g>
   <g id="PolyCollection_6">
    <defs>
     <path d="M 610.595182 -122.621272 
L 610.404818 -122.621272 
L 610.341233 -125.253405 
L 610.250683 -127.885537 
L 610.130971 -130.51767 
L 609.98437 -133.149803 
L 609.818588 -135.781935 
L 609.646191 -138.414068 
L 609.482174 -141.0462 
L 609.340064 -143.678333 
L 609.227639 -146.310466 
L 609.143729 -148.942598 
L 609.077346 -151.574731 
L 609.009688 -154.206864 
L 608.918525 -156.838996 
L 608.783609 -159.471129 
L 608.591282 -162.103261 
L 608.336734 -164.735394 
L 608.023046 -167.367527 
L 607.657343 -169.999659 
L 607.245351 -172.631792 
L 606.78644 -175.263925 
L 606.271213 -177.896057 
L 605.68303 -180.52819 
L 605.003503 -183.160322 
L 604.220397 -185.792455 
L 603.335209 -188.424588 
L 602.367372 -191.05672 
L 601.352733 -193.688853 
L 600.335595 -196.320985 
L 599.355598 -198.953118 
L 598.432586 -201.585251 
L 597.553871 -204.217383 
L 596.668387 -206.849516 
L 595.690895 -209.481649 
L 594.51644 -212.113781 
L 593.041479 -214.745914 
L 591.184989 -217.378046 
L 588.902235 -220.010179 
L 586.186832 -222.642312 
L 583.062252 -225.274444 
L 579.569243 -227.906577 
L 575.757669 -230.53871 
L 571.688209 -233.170842 
L 567.442549 -235.802975 
L 563.133598 -238.435107 
L 558.904422 -241.06724 
L 554.908676 -243.699373 
L 551.2754 -246.331505 
L 548.072085 -248.963638 
L 545.285021 -251.59577 
L 542.830627 -254.227903 
L 540.597184 -256.860036 
L 538.500361 -259.492168 
L 536.527468 -262.124301 
L 534.749772 -264.756434 
L 533.297534 -267.388566 
L 532.310481 -270.020699 
L 531.887647 -272.652831 
L 532.059461 -275.284964 
L 532.792768 -277.917097 
L 534.022989 -280.549229 
L 535.695102 -283.181362 
L 537.792184 -285.813495 
L 540.337558 -288.445627 
L 543.369925 -291.07776 
L 546.903731 -293.709892 
L 550.89368 -296.342025 
L 555.220227 -298.974158 
L 559.703494 -301.60629 
L 564.141038 -304.238423 
L 568.355397 -306.870555 
L 572.234158 -309.502688 
L 575.748995 -312.134821 
L 578.948599 -314.766953 
L 581.929802 -317.399086 
L 584.797878 -320.031219 
L 587.629214 -322.663351 
L 590.44717 -325.295484 
L 593.216812 -327.927616 
L 595.858155 -330.559749 
L 598.272342 -333.191882 
L 600.37197 -335.824014 
L 602.106156 -338.456147 
L 603.473191 -341.08828 
L 604.517997 -343.720412 
L 605.316754 -346.352545 
L 605.955082 -348.984677 
L 606.507555 -351.61681 
L 607.024648 -354.248943 
L 607.529536 -356.881075 
L 608.023173 -359.513208 
L 608.493571 -362.14534 
L 608.925002 -364.777473 
L 609.304351 -367.409606 
L 609.624012 -370.041738 
L 609.882174 -372.673871 
L 610.081801 -375.306004 
L 610.22925 -377.938136 
L 610.332931 -380.570269 
L 610.402071 -383.202401 
L 610.597929 -383.202401 
L 610.597929 -383.202401 
L 610.667069 -380.570269 
L 610.77075 -377.938136 
L 610.918199 -375.306004 
L 611.117826 -372.673871 
L 611.375988 -370.041738 
L 611.695649 -367.409606 
L 612.074998 -364.777473 
L 612.506429 -362.14534 
L 612.976827 -359.513208 
L 613.470464 -356.881075 
L 613.975352 -354.248943 
L 614.492445 -351.61681 
L 615.044918 -348.984677 
L 615.683246 -346.352545 
L 616.482003 -343.720412 
L 617.526809 -341.08828 
L 618.893844 -338.456147 
L 620.62803 -335.824014 
L 622.727658 -333.191882 
L 625.141845 -330.559749 
L 627.783188 -327.927616 
L 630.55283 -325.295484 
L 633.370786 -322.663351 
L 636.202122 -320.031219 
L 639.070198 -317.399086 
L 642.051401 -314.766953 
L 645.251005 -312.134821 
L 648.765842 -309.502688 
L 652.644603 -306.870555 
L 656.858962 -304.238423 
L 661.296506 -301.60629 
L 665.779773 -298.974158 
L 670.10632 -296.342025 
L 674.096269 -293.709892 
L 677.630075 -291.07776 
L 680.662442 -288.445627 
L 683.207816 -285.813495 
L 685.304898 -283.181362 
L 686.977011 -280.549229 
L 688.207232 -277.917097 
L 688.940539 -275.284964 
L 689.112353 -272.652831 
L 688.689519 -270.020699 
L 687.702466 -267.388566 
L 686.250228 -264.756434 
L 684.472532 -262.124301 
L 682.499639 -259.492168 
L 680.402816 -256.860036 
L 678.169373 -254.227903 
L 675.714979 -251.59577 
L 672.927915 -248.963638 
L 669.7246 -246.331505 
L 666.091324 -243.699373 
L 662.095578 -241.06724 
L 657.866402 -238.435107 
L 653.557451 -235.802975 
L 649.311791 -233.170842 
L 645.242331 -230.53871 
L 641.430757 -227.906577 
L 637.937748 -225.274444 
L 634.813168 -222.642312 
L 632.097765 -220.010179 
L 629.815011 -217.378046 
L 627.958521 -214.745914 
L 626.48356 -212.113781 
L 625.309105 -209.481649 
L 624.331613 -206.849516 
L 623.446129 -204.217383 
L 622.567414 -201.585251 
L 621.644402 -198.953118 
L 620.664405 -196.320985 
L 619.647267 -193.688853 
L 618.632628 -191.05672 
L 617.664791 -188.424588 
L 616.779603 -185.792455 
L 615.996497 -183.160322 
L 615.31697 -180.52819 
L 614.728787 -177.896057 
L 614.21356 -175.263925 
L 613.754649 -172.631792 
L 613.342657 -169.999659 
L 612.976954 -167.367527 
L 612.663266 -164.735394 
L 612.408718 -162.103261 
L 612.216391 -159.471129 
L 612.081475 -156.838996 
L 611.990312 -154.206864 
L 611.922654 -151.574731 
L 611.856271 -148.942598 
L 611.772361 -146.310466 
L 611.659936 -143.678333 
L 611.517826 -141.0462 
L 611.353809 -138.414068 
L 611.181412 -135.781935 
L 611.01563 -133.149803 
L 610.869029 -130.51767 
L 610.749317 -127.885537 
L 610.658767 -125.253405 
L 610.595182 -122.621272 
z
" id="m2efd748dac" style="stroke:#595959;stroke-width:1.75;"/>
    </defs>
    <g clip-path="url(#p4239580a5c)">
     <use style="fill:#95a3c3;stroke:#595959;stroke-width:1.75;" x="0" xlink:href="#m2efd748dac" y="864"/>
    </g>
   </g>
   <g id="line2d_41">
    <path clip-path="url(#p4239580a5c)" d="M 201.3 688.574197 
L 201.3 520.797316 
" style="fill:none;stroke:#595959;stroke-linecap:round;stroke-width:1.75;"/>
   </g>
   <g id="line2d_42">
    <path clip-path="url(#p4239580a5c)" d="M 201.3 622.459417 
L 201.3 578.273713 
" style="fill:none;stroke:#595959;stroke-linecap:round;stroke-width:5.25;"/>
   </g>
   <g id="line2d_43">
    <path clip-path="url(#p4239580a5c)" d="M 405.9 683.645896 
L 405.9 521.642323 
" style="fill:none;stroke:#595959;stroke-linecap:round;stroke-width:1.75;"/>
   </g>
   <g id="line2d_44">
    <path clip-path="url(#p4239580a5c)" d="M 405.9 622.939845 
L 405.9 580.184066 
" style="fill:none;stroke:#595959;stroke-linecap:round;stroke-width:5.25;"/>
   </g>
   <g id="line2d_45">
    <path clip-path="url(#p4239580a5c)" d="M 610.5 679.090126 
L 610.5 512.072388 
" style="fill:none;stroke:#595959;stroke-linecap:round;stroke-width:1.75;"/>
   </g>
   <g id="line2d_46">
    <path clip-path="url(#p4239580a5c)" d="M 610.5 616.056556 
L 610.5 572.442708 
" style="fill:none;stroke:#595959;stroke-linecap:round;stroke-width:5.25;"/>
   </g>
   <g id="patch_8">
    <path d="M 99 756 
L 99 459.490909 
" style="fill:none;"/>
   </g>
   <g id="patch_9">
    <path d="M 712.8 756 
L 712.8 459.490909 
" style="fill:none;"/>
   </g>
   <g id="patch_10">
    <path d="M 99 756 
L 712.8 756 
" style="fill:none;"/>
   </g>
   <g id="patch_11">
    <path d="M 99 459.490909 
L 712.8 459.490909 
" style="fill:none;"/>
   </g>
   <g id="PathCollection_4">
    <g clip-path="url(#p4239580a5c)">
     <use style="fill:#ffffff;stroke:#595959;stroke-width:0.3;" x="201.3" xlink:href="#m439bb2cd5d" y="600.089439"/>
    </g>
   </g>
   <g id="PathCollection_5">
    <g clip-path="url(#p4239580a5c)">
     <use style="fill:#ffffff;stroke:#595959;stroke-width:0.3;" x="405.9" xlink:href="#m439bb2cd5d" y="598.594776"/>
    </g>
   </g>
   <g id="PathCollection_6">
    <g clip-path="url(#p4239580a5c)">
     <use style="fill:#ffffff;stroke:#595959;stroke-width:0.3;" x="610.5" xlink:href="#m439bb2cd5d" y="593.850696"/>
    </g>
   </g>
  </g>
  <g id="text_25">
   <!-- Distribution of Biospecimen features across feature three diagnostic categories -->
   <defs>
    <path d="M 40.578125 0 
L 40.578125 7.625 
Q 34.515625 -1.171875 24.125 -1.171875 
Q 19.53125 -1.171875 15.546875 0.578125 
Q 11.578125 2.34375 9.640625 5 
Q 7.71875 7.671875 6.9375 11.53125 
Q 6.390625 14.109375 6.390625 19.734375 
L 6.390625 51.859375 
L 15.1875 51.859375 
L 15.1875 23.09375 
Q 15.1875 16.21875 15.71875 13.8125 
Q 16.546875 10.359375 19.234375 8.375 
Q 21.921875 6.390625 25.875 6.390625 
Q 29.828125 6.390625 33.296875 8.421875 
Q 36.765625 10.453125 38.203125 13.9375 
Q 39.65625 17.4375 39.65625 24.078125 
L 39.65625 51.859375 
L 48.4375 51.859375 
L 48.4375 0 
z
" id="ArialMT-75"/>
    <path d="M 8.6875 0 
L 8.6875 45.015625 
L 0.921875 45.015625 
L 0.921875 51.859375 
L 8.6875 51.859375 
L 8.6875 57.375 
Q 8.6875 62.59375 9.625 65.140625 
Q 10.890625 68.5625 14.078125 70.671875 
Q 17.28125 72.796875 23.046875 72.796875 
Q 26.765625 72.796875 31.25 71.921875 
L 29.9375 64.265625 
Q 27.203125 64.75 24.75 64.75 
Q 20.75 64.75 19.09375 63.03125 
Q 17.4375 61.328125 17.4375 56.640625 
L 17.4375 51.859375 
L 27.546875 51.859375 
L 27.546875 45.015625 
L 17.4375 45.015625 
L 17.4375 0 
z
" id="ArialMT-66"/>
    <path d="M 7.328125 0 
L 7.328125 71.578125 
L 34.1875 71.578125 
Q 42.390625 71.578125 47.34375 69.40625 
Q 52.296875 67.234375 55.09375 62.71875 
Q 57.90625 58.203125 57.90625 53.265625 
Q 57.90625 48.6875 55.421875 44.625 
Q 52.9375 40.578125 47.90625 38.09375 
Q 54.390625 36.1875 57.875 31.59375 
Q 61.375 27 61.375 20.75 
Q 61.375 15.71875 59.25 11.390625 
Q 57.125 7.078125 54 4.734375 
Q 50.875 2.390625 46.15625 1.1875 
Q 41.453125 0 34.625 0 
z
M 16.796875 41.5 
L 32.28125 41.5 
Q 38.578125 41.5 41.3125 42.328125 
Q 44.921875 43.40625 46.75 45.890625 
Q 48.578125 48.390625 48.578125 52.15625 
Q 48.578125 55.71875 46.875 58.421875 
Q 45.171875 61.140625 41.984375 62.140625 
Q 38.8125 63.140625 31.109375 63.140625 
L 16.796875 63.140625 
z
M 16.796875 8.453125 
L 34.625 8.453125 
Q 39.203125 8.453125 41.0625 8.796875 
Q 44.34375 9.375 46.53125 10.734375 
Q 48.734375 12.109375 50.140625 14.71875 
Q 51.5625 17.328125 51.5625 20.75 
Q 51.5625 24.75 49.515625 27.703125 
Q 47.46875 30.671875 43.828125 31.859375 
Q 40.1875 33.0625 33.34375 33.0625 
L 16.796875 33.0625 
z
" id="ArialMT-42"/>
    <path d="M 6.59375 -19.875 
L 6.59375 51.859375 
L 14.59375 51.859375 
L 14.59375 45.125 
Q 17.4375 49.078125 21 51.046875 
Q 24.5625 53.03125 29.640625 53.03125 
Q 36.28125 53.03125 41.359375 49.609375 
Q 46.4375 46.1875 49.015625 39.953125 
Q 51.609375 33.734375 51.609375 26.3125 
Q 51.609375 18.359375 48.75 11.984375 
Q 45.90625 5.609375 40.453125 2.21875 
Q 35.015625 -1.171875 29 -1.171875 
Q 24.609375 -1.171875 21.109375 0.6875 
Q 17.625 2.546875 15.375 5.375 
L 15.375 -19.875 
z
M 14.546875 25.640625 
Q 14.546875 15.625 18.59375 10.84375 
Q 22.65625 6.0625 28.421875 6.0625 
Q 34.28125 6.0625 38.453125 11.015625 
Q 42.625 15.96875 42.625 26.375 
Q 42.625 36.28125 38.546875 41.203125 
Q 34.46875 46.140625 28.8125 46.140625 
Q 23.1875 46.140625 18.859375 40.890625 
Q 14.546875 35.640625 14.546875 25.640625 
z
" id="ArialMT-70"/>
    <path d="M 6.59375 0 
L 6.59375 51.859375 
L 14.453125 51.859375 
L 14.453125 44.578125 
Q 16.890625 48.390625 20.9375 50.703125 
Q 25 53.03125 30.171875 53.03125 
Q 35.9375 53.03125 39.625 50.640625 
Q 43.3125 48.25 44.828125 43.953125 
Q 50.984375 53.03125 60.84375 53.03125 
Q 68.5625 53.03125 72.703125 48.75 
Q 76.859375 44.484375 76.859375 35.59375 
L 76.859375 0 
L 68.109375 0 
L 68.109375 32.671875 
Q 68.109375 37.9375 67.25 40.25 
Q 66.40625 42.578125 64.15625 43.984375 
Q 61.921875 45.40625 58.890625 45.40625 
Q 53.421875 45.40625 49.796875 41.765625 
Q 46.1875 38.140625 46.1875 30.125 
L 46.1875 0 
L 37.40625 0 
L 37.40625 33.6875 
Q 37.40625 39.546875 35.25 42.46875 
Q 33.109375 45.40625 28.21875 45.40625 
Q 24.515625 45.40625 21.359375 43.453125 
Q 18.21875 41.5 16.796875 37.734375 
Q 15.375 33.984375 15.375 26.90625 
L 15.375 0 
z
" id="ArialMT-6d"/>
    <path d="M 6.59375 0 
L 6.59375 71.578125 
L 15.375 71.578125 
L 15.375 45.90625 
Q 21.53125 53.03125 30.90625 53.03125 
Q 36.671875 53.03125 40.921875 50.75 
Q 45.171875 48.484375 47 44.484375 
Q 48.828125 40.484375 48.828125 32.859375 
L 48.828125 0 
L 40.046875 0 
L 40.046875 32.859375 
Q 40.046875 39.453125 37.1875 42.453125 
Q 34.328125 45.453125 29.109375 45.453125 
Q 25.203125 45.453125 21.75 43.421875 
Q 18.3125 41.40625 16.84375 37.9375 
Q 15.375 34.46875 15.375 28.375 
L 15.375 0 
z
" id="ArialMT-68"/>
    <path d="M 40.234375 0 
L 40.234375 6.546875 
Q 35.296875 -1.171875 25.734375 -1.171875 
Q 19.53125 -1.171875 14.328125 2.25 
Q 9.125 5.671875 6.265625 11.796875 
Q 3.421875 17.921875 3.421875 25.875 
Q 3.421875 33.640625 6 39.96875 
Q 8.59375 46.296875 13.765625 49.65625 
Q 18.953125 53.03125 25.34375 53.03125 
Q 30.03125 53.03125 33.6875 51.046875 
Q 37.359375 49.078125 39.65625 45.90625 
L 39.65625 71.578125 
L 48.390625 71.578125 
L 48.390625 0 
z
M 12.453125 25.875 
Q 12.453125 15.921875 16.640625 10.984375 
Q 20.84375 6.0625 26.5625 6.0625 
Q 32.328125 6.0625 36.34375 10.765625 
Q 40.375 15.484375 40.375 25.140625 
Q 40.375 35.796875 36.265625 40.765625 
Q 32.171875 45.75 26.171875 45.75 
Q 20.3125 45.75 16.375 40.96875 
Q 12.453125 36.1875 12.453125 25.875 
z
" id="ArialMT-64"/>
   </defs>
   <g style="fill:#262626;" transform="translate(19.628438 33.004125)scale(0.216 -0.216)">
    <use xlink:href="#ArialMT-44"/>
    <use x="72.216797" xlink:href="#ArialMT-69"/>
    <use x="94.433594" xlink:href="#ArialMT-73"/>
    <use x="144.433594" xlink:href="#ArialMT-74"/>
    <use x="172.216797" xlink:href="#ArialMT-72"/>
    <use x="205.517578" xlink:href="#ArialMT-69"/>
    <use x="227.734375" xlink:href="#ArialMT-62"/>
    <use x="283.349609" xlink:href="#ArialMT-75"/>
    <use x="338.964844" xlink:href="#ArialMT-74"/>
    <use x="366.748047" xlink:href="#ArialMT-69"/>
    <use x="388.964844" xlink:href="#ArialMT-6f"/>
    <use x="444.580078" xlink:href="#ArialMT-6e"/>
    <use x="500.195312" xlink:href="#ArialMT-20"/>
    <use x="527.978516" xlink:href="#ArialMT-6f"/>
    <use x="583.59375" xlink:href="#ArialMT-66"/>
    <use x="611.376953" xlink:href="#ArialMT-20"/>
    <use x="639.160156" xlink:href="#ArialMT-42"/>
    <use x="705.859375" xlink:href="#ArialMT-69"/>
    <use x="728.076172" xlink:href="#ArialMT-6f"/>
    <use x="783.691406" xlink:href="#ArialMT-73"/>
    <use x="833.691406" xlink:href="#ArialMT-70"/>
    <use x="889.306641" xlink:href="#ArialMT-65"/>
    <use x="944.921875" xlink:href="#ArialMT-63"/>
    <use x="994.921875" xlink:href="#ArialMT-69"/>
    <use x="1017.138672" xlink:href="#ArialMT-6d"/>
    <use x="1100.439453" xlink:href="#ArialMT-65"/>
    <use x="1156.054688" xlink:href="#ArialMT-6e"/>
    <use x="1211.669922" xlink:href="#ArialMT-20"/>
    <use x="1239.453125" xlink:href="#ArialMT-66"/>
    <use x="1267.236328" xlink:href="#ArialMT-65"/>
    <use x="1322.851562" xlink:href="#ArialMT-61"/>
    <use x="1378.466797" xlink:href="#ArialMT-74"/>
    <use x="1406.25" xlink:href="#ArialMT-75"/>
    <use x="1461.865234" xlink:href="#ArialMT-72"/>
    <use x="1495.166016" xlink:href="#ArialMT-65"/>
    <use x="1550.78125" xlink:href="#ArialMT-73"/>
    <use x="1600.78125" xlink:href="#ArialMT-20"/>
    <use x="1628.564453" xlink:href="#ArialMT-61"/>
    <use x="1684.179688" xlink:href="#ArialMT-63"/>
    <use x="1734.179688" xlink:href="#ArialMT-72"/>
    <use x="1767.480469" xlink:href="#ArialMT-6f"/>
    <use x="1823.095703" xlink:href="#ArialMT-73"/>
    <use x="1873.095703" xlink:href="#ArialMT-73"/>
    <use x="1923.095703" xlink:href="#ArialMT-20"/>
    <use x="1950.878906" xlink:href="#ArialMT-66"/>
    <use x="1978.662109" xlink:href="#ArialMT-65"/>
    <use x="2034.277344" xlink:href="#ArialMT-61"/>
    <use x="2089.892578" xlink:href="#ArialMT-74"/>
    <use x="2117.675781" xlink:href="#ArialMT-75"/>
    <use x="2173.291016" xlink:href="#ArialMT-72"/>
    <use x="2206.591797" xlink:href="#ArialMT-65"/>
    <use x="2262.207031" xlink:href="#ArialMT-20"/>
    <use x="2289.990234" xlink:href="#ArialMT-74"/>
    <use x="2317.773438" xlink:href="#ArialMT-68"/>
    <use x="2373.388672" xlink:href="#ArialMT-72"/>
    <use x="2406.689453" xlink:href="#ArialMT-65"/>
    <use x="2462.304688" xlink:href="#ArialMT-65"/>
    <use x="2517.919922" xlink:href="#ArialMT-20"/>
    <use x="2545.703125" xlink:href="#ArialMT-64"/>
    <use x="2601.318359" xlink:href="#ArialMT-69"/>
    <use x="2623.535156" xlink:href="#ArialMT-61"/>
    <use x="2679.150391" xlink:href="#ArialMT-67"/>
    <use x="2734.765625" xlink:href="#ArialMT-6e"/>
    <use x="2790.380859" xlink:href="#ArialMT-6f"/>
    <use x="2845.996094" xlink:href="#ArialMT-73"/>
    <use x="2895.996094" xlink:href="#ArialMT-74"/>
    <use x="2923.779297" xlink:href="#ArialMT-69"/>
    <use x="2945.996094" xlink:href="#ArialMT-63"/>
    <use x="2995.996094" xlink:href="#ArialMT-20"/>
    <use x="3023.779297" xlink:href="#ArialMT-63"/>
    <use x="3073.779297" xlink:href="#ArialMT-61"/>
    <use x="3129.394531" xlink:href="#ArialMT-74"/>
    <use x="3157.177734" xlink:href="#ArialMT-65"/>
    <use x="3212.792969" xlink:href="#ArialMT-67"/>
    <use x="3268.408203" xlink:href="#ArialMT-6f"/>
    <use x="3324.023438" xlink:href="#ArialMT-72"/>
    <use x="3357.324219" xlink:href="#ArialMT-69"/>
    <use x="3379.541016" xlink:href="#ArialMT-65"/>
    <use x="3435.15625" xlink:href="#ArialMT-73"/>
   </g>
  </g>
 </g>
 <defs>
  <clipPath id="p38f3570f6d">
   <rect height="296.509091" width="613.8" x="99" y="103.68"/>
  </clipPath>
  <clipPath id="p4239580a5c">
   <rect height="296.509091" width="613.8" x="99" y="459.490909"/>
  </clipPath>
 </defs>
</svg>
